<?xml version="1.0" encoding="UTF-8" standalone="no"?>
<!-- Created with Inkscape (http://www.inkscape.org/) -->

<svg
   xmlns:dc="http://purl.org/dc/elements/1.1/"
   xmlns:cc="http://creativecommons.org/ns#"
   xmlns:rdf="http://www.w3.org/1999/02/22-rdf-syntax-ns#"
   xmlns:svg="http://www.w3.org/2000/svg"
   xmlns="http://www.w3.org/2000/svg"
   xmlns:sodipodi="http://sodipodi.sourceforge.net/DTD/sodipodi-0.dtd"
   xmlns:inkscape="http://www.inkscape.org/namespaces/inkscape"
   width="11.288889mm"
   height="11.288889mm"
   viewBox="0 0 40.000001 40"
   id="svg7263"
   version="1.1"
   inkscape:version="0.91 r13725"
   sodipodi:docname="icono-k06.svg">
  <defs
     id="defs7265" />
  <sodipodi:namedview
     id="base"
     pagecolor="#ffffff"
     bordercolor="#666666"
     borderopacity="1.0"
     inkscape:pageopacity="0.0"
     inkscape:pageshadow="2"
     inkscape:zoom="6.6146478"
     inkscape:cx="35.269889"
     inkscape:cy="6.9721747"
     inkscape:document-units="px"
     inkscape:current-layer="layer1"
     showgrid="false"
     fit-margin-top="0"
     fit-margin-left="0"
     fit-margin-right="0"
     fit-margin-bottom="0"
     inkscape:window-width="1920"
     inkscape:window-height="1027"
     inkscape:window-x="0"
     inkscape:window-y="0"
     inkscape:window-maximized="1" />
  <metadata
     id="metadata7268">
    <rdf:RDF>
      <cc:Work
         rdf:about="">
        <dc:format>image/svg+xml</dc:format>
        <dc:type
           rdf:resource="http://purl.org/dc/dcmitype/StillImage" />
        <dc:title></dc:title>
      </cc:Work>
    </rdf:RDF>
  </metadata>
  <g
     inkscape:label="Layer 1"
     inkscape:groupmode="layer"
     id="layer1"
     transform="translate(-505.71428,-795.21935)">
    <g
       inkscape:export-ydpi="96"
       inkscape:export-xdpi="96"
       id="g6196"
       transform="matrix(3.0623457,0,0,3.2542149,341.00637,231.791)"
       inkscape:export-filename="E:\Users\Brand1\Downloads\social.png">
      <circle
         style="fill:#515151;fill-opacity:1;stroke:none;stroke-width:0.26458332"
         id="circle6192"
         cx="60.315826"
         cy="179.28391"
         r="6.1955833" />
      <path
         style="fill:#222222;fill-opacity:1;stroke:none;stroke-width:0.26458332"
         d="m 60.315826,185.47949 c -3.421725,0 -6.195581,-2.77386 -6.195583,-6.19558 -4e-6,-3.42173 2.773854,-6.19559 6.195583,-6.19559 z"
         id="path6194"
         inkscape:connector-curvature="0"
         sodipodi:nodetypes="cscc" />
    </g>
    <g
       inkscape:export-ydpi="96"
       inkscape:export-xdpi="96"
       transform="matrix(3.228106,0,0,3.2281052,331.0084,236.47204)"
       id="g6202"
       inkscape:export-filename="E:\Users\Brand1\Downloads\social.png"
       style="fill:#1a1a1a">
      <circle
         r="6.1955833"
         cy="179.28391"
         cx="60.315826"
         id="circle6198"
         style="fill:#1a1a1a;fill-opacity:1;stroke:none;stroke-width:0.26458332" />
      <path
         sodipodi:nodetypes="cscc"
         inkscape:connector-curvature="0"
         id="path6200"
         d="m 60.315826,185.47949 c -3.421725,0 -6.195581,-2.77386 -6.195583,-6.19558 -4e-6,-3.42173 2.773854,-6.19559 6.195583,-6.19559 z"
         style="fill:#1a1a1a;fill-opacity:1;stroke:none;stroke-width:0.26458332" />
    </g>
    <g
       style="fill:#ffffff"
       transform="matrix(0.06318586,0,0,0.06318585,511.04479,800.54993)"
       id="g7948"
       inkscape:export-xdpi="96"
       inkscape:export-ydpi="96">
      <g
         style="fill:#ffffff"
         id="g7891">
        <g
           style="fill:#ffffff"
           id="Layer_8_43_">
          <path
             style="fill:#ffffff"
             inkscape:connector-curvature="0"
             d="m 450.319,110.711 -436.311,0 C 6.271,110.711 0,116.982 0,124.72 l 0,214.884 c 0,7.737 6.271,14.011 14.008,14.011 l 436.312,0 c 7.737,0 14.008,-6.273 14.008,-14.011 l 0,-214.884 c -10e-4,-7.732 -6.271,-14.009 -14.009,-14.009 z m -14.01,170.716 c -3.885,-1.62 -8.14,-2.517 -12.607,-2.517 -18.106,0 -32.782,14.675 -32.782,32.777 0,4.99 1.139,9.685 3.138,13.909 l -324.621,0 c 1.989,-4.225 3.134,-8.931 3.134,-13.909 0,-18.103 -14.677,-32.777 -32.781,-32.777 -4.152,0 -8.115,0.809 -11.772,2.212 l 0,-100.054 c 3.657,1.406 7.613,2.213 11.772,2.213 18.104,0 32.781,-14.676 32.781,-32.78 0,-4.153 -0.808,-8.115 -2.213,-11.773 l 322.775,0 c -1.409,3.658 -2.222,7.614 -2.222,11.773 0,18.104 14.674,32.78 32.786,32.78 4.473,0 8.728,-0.903 12.607,-2.522 z m -271.616,-97.962 30.802,0 c -15.38,11.403 -25.39,29.631 -25.39,50.246 0,18.835 8.367,35.688 21.541,47.164 l -26.952,0 0,30.817 134.944,0 0,-30.817 -25.928,0 c 13.177,-11.471 21.526,-28.329 21.526,-47.164 0,-20.615 -10.012,-38.843 -25.379,-50.246 l 29.78,0 0,-30.818 -134.944,0 z m 45.666,31.805 c 0,-12.799 10.372,-23.171 23.168,-23.171 12.798,0 23.176,10.377 23.176,23.171 0,8.148 -4.216,15.297 -10.585,19.432 12.093,4.459 20.728,16.054 20.728,29.696 l -63.356,0 c 0,-12.897 7.705,-23.957 18.749,-28.903 -7.088,-3.97 -11.88,-11.534 -11.88,-20.225 z"
             id="path7888" />
        </g>
      </g>
      <g
         style="fill:#ffffff"
         id="g7893" />
      <g
         style="fill:#ffffff"
         id="g7895" />
      <g
         style="fill:#ffffff"
         id="g7897" />
      <g
         style="fill:#ffffff"
         id="g7899" />
      <g
         style="fill:#ffffff"
         id="g7901" />
      <g
         style="fill:#ffffff"
         id="g7903" />
      <g
         style="fill:#ffffff"
         id="g7905" />
      <g
         style="fill:#ffffff"
         id="g7907" />
      <g
         style="fill:#ffffff"
         id="g7909" />
      <g
         style="fill:#ffffff"
         id="g7911" />
      <g
         style="fill:#ffffff"
         id="g7913" />
      <g
         style="fill:#ffffff"
         id="g7915" />
      <g
         style="fill:#ffffff"
         id="g7917" />
      <g
         style="fill:#ffffff"
         id="g7919" />
      <g
         style="fill:#ffffff"
         id="g7921" />
    </g>
  </g>
</svg>
