<?xml version="1.0" encoding="UTF-8" standalone="no"?>
<!-- Created with Inkscape (http://www.inkscape.org/) -->

<svg
   xmlns:dc="http://purl.org/dc/elements/1.1/"
   xmlns:cc="http://creativecommons.org/ns#"
   xmlns:rdf="http://www.w3.org/1999/02/22-rdf-syntax-ns#"
   xmlns:svg="http://www.w3.org/2000/svg"
   xmlns="http://www.w3.org/2000/svg"
   xmlns:sodipodi="http://sodipodi.sourceforge.net/DTD/sodipodi-0.dtd"
   xmlns:inkscape="http://www.inkscape.org/namespaces/inkscape"
   width="11.288889mm"
   height="11.288889mm"
   viewBox="0 0 40.000001 40"
   id="svg7263"
   version="1.1"
   inkscape:version="0.91 r13725"
   sodipodi:docname="icono-k05.svg">
  <defs
     id="defs7265" />
  <sodipodi:namedview
     id="base"
     pagecolor="#ffffff"
     bordercolor="#666666"
     borderopacity="1.0"
     inkscape:pageopacity="0.0"
     inkscape:pageshadow="2"
     inkscape:zoom="6.6146478"
     inkscape:cx="35.269889"
     inkscape:cy="6.9721747"
     inkscape:document-units="px"
     inkscape:current-layer="layer1"
     showgrid="false"
     fit-margin-top="0"
     fit-margin-left="0"
     fit-margin-right="0"
     fit-margin-bottom="0"
     inkscape:window-width="1920"
     inkscape:window-height="1027"
     inkscape:window-x="0"
     inkscape:window-y="0"
     inkscape:window-maximized="1" />
  <metadata
     id="metadata7268">
    <rdf:RDF>
      <cc:Work
         rdf:about="">
        <dc:format>image/svg+xml</dc:format>
        <dc:type
           rdf:resource="http://purl.org/dc/dcmitype/StillImage" />
        <dc:title></dc:title>
      </cc:Work>
    </rdf:RDF>
  </metadata>
  <g
     inkscape:label="Layer 1"
     inkscape:groupmode="layer"
     id="layer1"
     transform="translate(-505.71428,-795.21935)">
    <g
       inkscape:export-ydpi="96"
       inkscape:export-xdpi="96"
       id="g6196"
       transform="matrix(3.0623457,0,0,3.2542149,341.00637,231.791)"
       inkscape:export-filename="E:\Users\Brand1\Downloads\social.png">
      <circle
         style="fill:#515151;fill-opacity:1;stroke:none;stroke-width:0.26458332"
         id="circle6192"
         cx="60.315826"
         cy="179.28391"
         r="6.1955833" />
      <path
         style="fill:#222222;fill-opacity:1;stroke:none;stroke-width:0.26458332"
         d="m 60.315826,185.47949 c -3.421725,0 -6.195581,-2.77386 -6.195583,-6.19558 -4e-6,-3.42173 2.773854,-6.19559 6.195583,-6.19559 z"
         id="path6194"
         inkscape:connector-curvature="0"
         sodipodi:nodetypes="cscc" />
    </g>
    <g
       inkscape:export-ydpi="96"
       inkscape:export-xdpi="96"
       transform="matrix(3.228106,0,0,3.2281052,331.0084,236.47204)"
       id="g6202"
       inkscape:export-filename="E:\Users\Brand1\Downloads\social.png"
       style="fill:#1a1a1a">
      <circle
         r="6.1955833"
         cy="179.28391"
         cx="60.315826"
         id="circle6198"
         style="fill:#1a1a1a;fill-opacity:1;stroke:none;stroke-width:0.26458332" />
      <path
         sodipodi:nodetypes="cscc"
         inkscape:connector-curvature="0"
         id="path6200"
         d="m 60.315826,185.47949 c -3.421725,0 -6.195581,-2.77386 -6.195583,-6.19558 -4e-6,-3.42173 2.773854,-6.19559 6.195583,-6.19559 z"
         style="fill:#1a1a1a;fill-opacity:1;stroke:none;stroke-width:0.26458332" />
    </g>
    <g
       style="fill:#ffffff"
       transform="matrix(0.04375128,0,0,0.04375128,71.825947,332.31587)"
       id="g7209"
       inkscape:export-xdpi="96"
       inkscape:export-ydpi="96">
      <g
         style="fill:#ffffff"
         id="g7155" />
      <g
         style="fill:#ffffff"
         id="g7157" />
      <g
         style="fill:#ffffff"
         id="g7159" />
      <g
         style="fill:#ffffff"
         id="g7161" />
      <g
         style="fill:#ffffff"
         id="g7163" />
      <g
         style="fill:#ffffff"
         id="g7165" />
      <g
         style="fill:#ffffff"
         id="g7167" />
      <g
         style="fill:#ffffff"
         id="g7169" />
      <g
         style="fill:#ffffff"
         id="g7171" />
      <g
         style="fill:#ffffff"
         id="g7173" />
      <g
         style="fill:#ffffff"
         id="g7175" />
      <g
         style="fill:#ffffff"
         id="g7177" />
      <g
         style="fill:#ffffff"
         id="g7179" />
      <g
         style="fill:#ffffff"
         id="g7181" />
      <g
         style="fill:#ffffff"
         id="g7183" />
      <g
         transform="translate(10107.62,10770.804)"
         style="fill:#ffffff"
         id="g7153">
        <path
           style="fill:#ffffff"
           inkscape:connector-curvature="0"
           d="m 200,100 c 128.867,0 233.333,104.468 233.333,233.333 l -50,0 c 0,-48.97 -19.069,-95.009 -53.697,-129.636 C 295.009,169.07 248.97,150 200,150 Z M 200,0 c 184.094,0 333.333,149.24 333.333,333.333 l -50,0 c 0,-38.271 -7.484,-75.372 -22.246,-110.27 C 446.82,189.33 426.384,159.023 400.347,132.986 374.309,106.948 344.003,86.512 310.27,72.244 275.373,57.484 238.272,50 200,50 Z m 99.162,234.171 c 22.79,22.79 34.164,52.66 34.151,82.526 C 300,366.695 300,433.333 300,433.333 c -133.333,0 -233.333,100 -233.333,100 L 59.375,526.042 47.328,513.994 195.027,366.297 c 1.623,0.241 3.282,0.37 4.973,0.37 18.409,0 33.333,-14.925 33.333,-33.334 C 233.333,314.924 218.409,300 200,300 c -18.409,0 -33.333,14.924 -33.333,33.333 0,1.691 0.128,3.352 0.371,4.973 L 19.339,486.006 0,466.667 c 0,0 100,-100 100,-233.333 0,0 66.666,0 116.666,-33.333 29.858,-0.001 59.715,11.39 82.496,34.17 z"
           id="path7151" />
      </g>
    </g>
  </g>
</svg>
