<?xml version="1.0" encoding="UTF-8" standalone="no"?>
<!-- Created with Inkscape (http://www.inkscape.org/) -->

<svg
   xmlns:dc="http://purl.org/dc/elements/1.1/"
   xmlns:cc="http://creativecommons.org/ns#"
   xmlns:rdf="http://www.w3.org/1999/02/22-rdf-syntax-ns#"
   xmlns:svg="http://www.w3.org/2000/svg"
   xmlns="http://www.w3.org/2000/svg"
   xmlns:sodipodi="http://sodipodi.sourceforge.net/DTD/sodipodi-0.dtd"
   xmlns:inkscape="http://www.inkscape.org/namespaces/inkscape"
   width="11.288889mm"
   height="11.288889mm"
   viewBox="0 0 40.000001 40"
   id="svg7263"
   version="1.1"
   inkscape:version="0.91 r13725"
   sodipodi:docname="icono-k02.svg">
  <defs
     id="defs7265" />
  <sodipodi:namedview
     id="base"
     pagecolor="#ffffff"
     bordercolor="#666666"
     borderopacity="1.0"
     inkscape:pageopacity="0.0"
     inkscape:pageshadow="2"
     inkscape:zoom="6.6146478"
     inkscape:cx="35.269889"
     inkscape:cy="6.9721747"
     inkscape:document-units="px"
     inkscape:current-layer="layer1"
     showgrid="false"
     fit-margin-top="0"
     fit-margin-left="0"
     fit-margin-right="0"
     fit-margin-bottom="0"
     inkscape:window-width="1920"
     inkscape:window-height="1027"
     inkscape:window-x="0"
     inkscape:window-y="0"
     inkscape:window-maximized="1" />
  <metadata
     id="metadata7268">
    <rdf:RDF>
      <cc:Work
         rdf:about="">
        <dc:format>image/svg+xml</dc:format>
        <dc:type
           rdf:resource="http://purl.org/dc/dcmitype/StillImage" />
        <dc:title></dc:title>
      </cc:Work>
    </rdf:RDF>
  </metadata>
  <g
     inkscape:label="Layer 1"
     inkscape:groupmode="layer"
     id="layer1"
     transform="translate(-505.71428,-795.21935)">
    <g
       inkscape:export-ydpi="96"
       inkscape:export-xdpi="96"
       id="g6196"
       transform="matrix(3.0623457,0,0,3.2542149,341.00637,231.791)"
       inkscape:export-filename="E:\Users\Brand1\Downloads\social.png">
      <circle
         style="fill:#515151;fill-opacity:1;stroke:none;stroke-width:0.26458332"
         id="circle6192"
         cx="60.315826"
         cy="179.28391"
         r="6.1955833" />
      <path
         style="fill:#222222;fill-opacity:1;stroke:none;stroke-width:0.26458332"
         d="m 60.315826,185.47949 c -3.421725,0 -6.195581,-2.77386 -6.195583,-6.19558 -4e-6,-3.42173 2.773854,-6.19559 6.195583,-6.19559 z"
         id="path6194"
         inkscape:connector-curvature="0"
         sodipodi:nodetypes="cscc" />
    </g>
    <g
       inkscape:export-ydpi="96"
       inkscape:export-xdpi="96"
       transform="matrix(3.228106,0,0,3.2281052,331.0084,236.47204)"
       id="g6202"
       inkscape:export-filename="E:\Users\Brand1\Downloads\social.png"
       style="fill:#1a1a1a">
      <circle
         r="6.1955833"
         cy="179.28391"
         cx="60.315826"
         id="circle6198"
         style="fill:#1a1a1a;fill-opacity:1;stroke:none;stroke-width:0.26458332" />
      <path
         sodipodi:nodetypes="cscc"
         inkscape:connector-curvature="0"
         id="path6200"
         d="m 60.315826,185.47949 c -3.421725,0 -6.195581,-2.77386 -6.195583,-6.19558 -4e-6,-3.42173 2.773854,-6.19559 6.195583,-6.19559 z"
         style="fill:#1a1a1a;fill-opacity:1;stroke:none;stroke-width:0.26458332" />
    </g>
    <g
       style="fill:#ffffff"
       transform="matrix(0.96838843,0,0,0.96838837,185.78135,636.4323)"
       id="g6346"
       inkscape:export-xdpi="96"
       inkscape:export-ydpi="96">
      <g
         style="fill:#ffffff"
         transform="matrix(0.05014429,0,0,0.05014429,339.3099,172.9037)"
         id="g6314">
        <path
           style="fill:#ffffff"
           inkscape:connector-curvature="0"
           d="m 421.18,35.684 -280.213,0 c -25.539,0 -46.254,20.715 -46.254,46.256 l 0,43.537 40.141,0 0,-35.163 c 0,-9.727 7.865,-17.596 17.594,-17.596 l 257.252,0 c 9.729,0 17.598,7.869 17.598,17.596 l 0,165.449 c 0,9.727 -7.869,17.596 -17.598,17.596 l -119.866,0 0,57.719 c 0,0 -0.17,76.701 -0.199,77.361 -0.324,8.115 -2.676,15.643 -6.5,22.283 l 83.293,0 c 9.727,0 17.594,-7.869 17.594,-17.596 l 0,-22.5 c 0,-9.728 -7.867,-17.596 -17.594,-17.596 l -42.936,0 0,-31.21 97.688,0 c 25.541,0 46.256,-20.715 46.256,-46.256 l 0,-213.625 C 467.435,56.398 446.721,35.684 421.18,35.684 Z m -22.725,283.593 c -7.98,0 -14.434,-6.471 -14.434,-14.445 0,-7.965 6.453,-14.416 14.434,-14.416 7.955,0 14.426,6.451 14.426,14.416 0,7.975 -6.471,14.445 -14.426,14.445 z"
           id="path6304" />
        <path
           style="fill:#ffffff"
           inkscape:connector-curvature="0"
           d="m 248.078,220.861 -2.119,-3.84 -14.43,14.443 0,130.994 -81.619,0 0,28.108 c 2.352,-1.645 5.041,-2.828 8.131,-2.828 7.963,0 14.432,6.455 14.432,14.416 0,7.975 -6.469,14.445 -14.432,14.445 -3.09,0 -5.779,-1.182 -8.131,-2.826 l 0,4.117 c 0,4.9 -1.014,9.527 -2.643,13.861 l 93.682,0 c 13.951,0 25.281,-11.328 25.281,-25.279 l 0,-175.16 -0.492,0 c -7.345,10e-4 -14.125,-4.009 -17.66,-10.451 z"
           id="path6306" />
        <path
           style="fill:#ffffff"
           inkscape:connector-curvature="0"
           d="m 84.555,188.742 100.688,0 16.215,-16.225 -3.953,-2.184 c -7.113,-3.98 -11.139,-11.773 -10.25,-19.732 0.066,-0.537 0.293,-1 0.4,-1.521 l -112.522,0 c -13.953,0 -25.281,11.326 -25.281,25.281 l 0,35.389 34.703,0 z"
           id="path6308" />
        <path
           style="fill:#ffffff"
           inkscape:connector-curvature="0"
           d="m 110.537,230.928 -94.771,0 C 7.053,230.928 0,237.982 0,246.695 l 0,168.768 c 0,8.713 7.053,15.766 15.766,15.766 l 94.771,0 c 8.715,0 15.771,-7.053 15.771,-15.766 l 0,-168.768 c 10e-4,-8.713 -7.056,-15.767 -15.771,-15.767 z m -47.375,191.31 c -6.699,0 -12.141,-5.438 -12.141,-12.154 0,-6.685 5.441,-12.109 12.141,-12.109 6.686,0 12.127,5.424 12.127,12.109 0,6.717 -5.441,12.154 -12.127,12.154 z m 37.527,-49.221 -75.056,0 0,-110.724 75.057,0 0,110.724 z"
           id="path6310" />
        <path
           style="fill:#ffffff"
           inkscape:connector-curvature="0"
           d="m 293.217,125.246 c -0.834,-0.861 -1.969,-1.307 -3.139,-1.307 -0.432,0 -0.846,0.045 -1.26,0.168 l -82.723,24.342 c -1.734,0.492 -2.996,1.982 -3.18,3.781 -0.199,1.768 0.707,3.504 2.275,4.365 l 22.189,12.248 -58.855,58.889 c -6.152,6.145 -6.152,16.121 0,22.266 3.07,3.061 7.098,4.596 11.123,4.596 4.027,0 8.053,-1.535 11.127,-4.611 l 58.857,-58.889 12.231,22.178 c 0.783,1.412 2.273,2.305 3.875,2.305 0.168,0 0.336,0 0.506,-0.029 1.781,-0.186 3.289,-1.443 3.779,-3.152 l 24.314,-82.756 c 0.477,-1.581 0.016,-3.273 -1.119,-4.394 z"
           id="path6312" />
      </g>
      <g
         style="fill:#ffffff"
         id="g6316" />
      <g
         style="fill:#ffffff"
         id="g6318" />
      <g
         style="fill:#ffffff"
         id="g6320" />
      <g
         style="fill:#ffffff"
         id="g6322" />
      <g
         style="fill:#ffffff"
         id="g6324" />
      <g
         style="fill:#ffffff"
         id="g6326" />
      <g
         style="fill:#ffffff"
         id="g6328" />
      <g
         style="fill:#ffffff"
         id="g6330" />
      <g
         style="fill:#ffffff"
         id="g6332" />
      <g
         style="fill:#ffffff"
         id="g6334" />
      <g
         style="fill:#ffffff"
         id="g6336" />
      <g
         style="fill:#ffffff"
         id="g6338" />
      <g
         style="fill:#ffffff"
         id="g6340" />
      <g
         style="fill:#ffffff"
         id="g6342" />
      <g
         style="fill:#ffffff"
         id="g6344" />
    </g>
  </g>
</svg>
