<?xml version="1.0" encoding="UTF-8" standalone="no"?>
<!-- Created with Inkscape (http://www.inkscape.org/) -->

<svg
   xmlns:dc="http://purl.org/dc/elements/1.1/"
   xmlns:cc="http://creativecommons.org/ns#"
   xmlns:rdf="http://www.w3.org/1999/02/22-rdf-syntax-ns#"
   xmlns:svg="http://www.w3.org/2000/svg"
   xmlns="http://www.w3.org/2000/svg"
   xmlns:sodipodi="http://sodipodi.sourceforge.net/DTD/sodipodi-0.dtd"
   xmlns:inkscape="http://www.inkscape.org/namespaces/inkscape"
   width="11.288889mm"
   height="11.288889mm"
   viewBox="0 0 40.000001 40"
   id="svg7263"
   version="1.1"
   inkscape:version="0.91 r13725"
   sodipodi:docname="icono-k04.svg">
  <defs
     id="defs7265" />
  <sodipodi:namedview
     id="base"
     pagecolor="#ffffff"
     bordercolor="#666666"
     borderopacity="1.0"
     inkscape:pageopacity="0.0"
     inkscape:pageshadow="2"
     inkscape:zoom="6.4679384"
     inkscape:cx="37.844662"
     inkscape:cy="35.843311"
     inkscape:document-units="px"
     inkscape:current-layer="layer1"
     showgrid="false"
     fit-margin-top="0"
     fit-margin-left="0"
     fit-margin-right="0"
     fit-margin-bottom="0"
     inkscape:window-width="1920"
     inkscape:window-height="1027"
     inkscape:window-x="0"
     inkscape:window-y="0"
     inkscape:window-maximized="1" />
  <metadata
     id="metadata7268">
    <rdf:RDF>
      <cc:Work
         rdf:about="">
        <dc:format>image/svg+xml</dc:format>
        <dc:type
           rdf:resource="http://purl.org/dc/dcmitype/StillImage" />
        <dc:title />
      </cc:Work>
    </rdf:RDF>
  </metadata>
  <g
     inkscape:label="Layer 1"
     inkscape:groupmode="layer"
     id="layer1"
     transform="translate(-505.71428,-795.21935)">
    <g
       inkscape:export-ydpi="96"
       inkscape:export-xdpi="96"
       transform="matrix(3.228106,0,0,3.2281052,331.0084,236.47204)"
       id="g6202"
       inkscape:export-filename="E:\Users\Brand1\Downloads\social.png"
       style="fill:#1a1a1a">
      <circle
         r="6.1955833"
         cy="179.28391"
         cx="60.315826"
         id="circle6198"
         style="fill:#1a1a1a;fill-opacity:1;stroke:none;stroke-width:0.26458332" />
      <path
         sodipodi:nodetypes="cscc"
         inkscape:connector-curvature="0"
         id="path6200"
         d="m 60.315826,185.47949 c -3.421725,0 -6.195581,-2.77386 -6.195583,-6.19558 -4e-6,-3.42173 2.773854,-6.19559 6.195583,-6.19559 z"
         style="fill:#1a1a1a;fill-opacity:1;stroke:none;stroke-width:0.26458332" />
    </g>
    <g
       inkscape:export-ydpi="96"
       inkscape:export-xdpi="96"
       style="fill:#ffffff"
       transform="matrix(0.11980135,0,0,0.12730741,513.34479,802.07484)"
       id="g7602"
       inkscape:export-filename="E:\Users\Brand1\Downloads\social.png">
      <path
         style="fill:#ffffff"
         inkscape:connector-curvature="0"
         d="m 201.5,175.343 -135.259,0 22.758,-6.293 c 1.019,-0.154 2.001,-0.608 2.787,-1.393 l 95.336,-95.336 c 0.938,-0.938 1.464,-2.209 1.464,-3.535 0,-1.326 -0.527,-2.598 -1.464,-3.535 L 169.77,47.898 67.363,150.305 78.606,161.548 60.281,166.616 43.129,149.464 48.197,131.139 60.293,143.235 162.699,40.828 144.493,22.622 c -1.953,-1.953 -5.118,-1.953 -7.071,0 l -95.336,95.336 c -0.756,0.756 -1.228,1.732 -1.389,2.776 l -15.102,54.609 -20.595,0 c -2.761,0 -5,2.238 -5,5 0,2.762 2.239,5 5,5 l 196.5,0 c 2.761,0 5,-2.238 5,-5 0,-2.762 -2.239,-5 -5,-5 z"
         id="path7570" />
      <g
         style="fill:#ffffff"
         id="g7572" />
      <g
         style="fill:#ffffff"
         id="g7574" />
      <g
         style="fill:#ffffff"
         id="g7576" />
      <g
         style="fill:#ffffff"
         id="g7578" />
      <g
         style="fill:#ffffff"
         id="g7580" />
      <g
         style="fill:#ffffff"
         id="g7582" />
      <g
         style="fill:#ffffff"
         id="g7584" />
      <g
         style="fill:#ffffff"
         id="g7586" />
      <g
         style="fill:#ffffff"
         id="g7588" />
      <g
         style="fill:#ffffff"
         id="g7590" />
      <g
         style="fill:#ffffff"
         id="g7592" />
      <g
         style="fill:#ffffff"
         id="g7594" />
      <g
         style="fill:#ffffff"
         id="g7596" />
      <g
         style="fill:#ffffff"
         id="g7598" />
      <g
         style="fill:#ffffff"
         id="g7600" />
    </g>
  </g>
</svg>
