<?xml version="1.0" encoding="UTF-8" standalone="no"?>
<!-- Created with Inkscape (http://www.inkscape.org/) -->

<svg
   xmlns:dc="http://purl.org/dc/elements/1.1/"
   xmlns:cc="http://creativecommons.org/ns#"
   xmlns:rdf="http://www.w3.org/1999/02/22-rdf-syntax-ns#"
   xmlns:svg="http://www.w3.org/2000/svg"
   xmlns="http://www.w3.org/2000/svg"
   xmlns:sodipodi="http://sodipodi.sourceforge.net/DTD/sodipodi-0.dtd"
   xmlns:inkscape="http://www.inkscape.org/namespaces/inkscape"
   width="11.288889mm"
   height="11.288889mm"
   viewBox="0 0 40.000001 40"
   id="svg7263"
   version="1.1"
   inkscape:version="0.91 r13725"
   sodipodi:docname="icono-k08.svg">
  <defs
     id="defs7265" />
  <sodipodi:namedview
     id="base"
     pagecolor="#ffffff"
     bordercolor="#666666"
     borderopacity="1.0"
     inkscape:pageopacity="0.0"
     inkscape:pageshadow="2"
     inkscape:zoom="6.6146478"
     inkscape:cx="35.269889"
     inkscape:cy="6.9721747"
     inkscape:document-units="px"
     inkscape:current-layer="layer1"
     showgrid="false"
     fit-margin-top="0"
     fit-margin-left="0"
     fit-margin-right="0"
     fit-margin-bottom="0"
     inkscape:window-width="1920"
     inkscape:window-height="1027"
     inkscape:window-x="0"
     inkscape:window-y="0"
     inkscape:window-maximized="1" />
  <metadata
     id="metadata7268">
    <rdf:RDF>
      <cc:Work
         rdf:about="">
        <dc:format>image/svg+xml</dc:format>
        <dc:type
           rdf:resource="http://purl.org/dc/dcmitype/StillImage" />
        <dc:title></dc:title>
      </cc:Work>
    </rdf:RDF>
  </metadata>
  <g
     inkscape:label="Layer 1"
     inkscape:groupmode="layer"
     id="layer1"
     transform="translate(-505.71428,-795.21935)">
    <g
       inkscape:export-ydpi="96"
       inkscape:export-xdpi="96"
       id="g6196"
       transform="matrix(3.0623457,0,0,3.2542149,341.00637,231.791)"
       inkscape:export-filename="E:\Users\Brand1\Downloads\social.png">
      <circle
         style="fill:#515151;fill-opacity:1;stroke:none;stroke-width:0.26458332"
         id="circle6192"
         cx="60.315826"
         cy="179.28391"
         r="6.1955833" />
      <path
         style="fill:#222222;fill-opacity:1;stroke:none;stroke-width:0.26458332"
         d="m 60.315826,185.47949 c -3.421725,0 -6.195581,-2.77386 -6.195583,-6.19558 -4e-6,-3.42173 2.773854,-6.19559 6.195583,-6.19559 z"
         id="path6194"
         inkscape:connector-curvature="0"
         sodipodi:nodetypes="cscc" />
    </g>
    <g
       inkscape:export-ydpi="96"
       inkscape:export-xdpi="96"
       transform="matrix(3.228106,0,0,3.2281052,331.0084,236.47204)"
       id="g6202"
       inkscape:export-filename="E:\Users\Brand1\Downloads\social.png"
       style="fill:#1a1a1a">
      <circle
         r="6.1955833"
         cy="179.28391"
         cx="60.315826"
         id="circle6198"
         style="fill:#1a1a1a;fill-opacity:1;stroke:none;stroke-width:0.26458332" />
      <path
         sodipodi:nodetypes="cscc"
         inkscape:connector-curvature="0"
         id="path6200"
         d="m 60.315826,185.47949 c -3.421725,0 -6.195581,-2.77386 -6.195583,-6.19558 -4e-6,-3.42173 2.773854,-6.19559 6.195583,-6.19559 z"
         style="fill:#1a1a1a;fill-opacity:1;stroke:none;stroke-width:0.26458332" />
    </g>
    <path
       style="fill:#ffffff;stroke:#ffffff;stroke-width:0.06090176"
       d="m 513.53393,824.75034 0,-2.64918 0.3654,0 0.36541,0 0,2.28382 0,2.28381 2.25337,0 2.25336,0 0,0.36548 0,0.36548 -2.61878,0 -2.61878,0 z m 19.06227,2.28386 0,-0.36548 2.28381,0 2.28383,0 0,-2.28378 0,-2.28386 0.3654,0 0.3654,0 0,2.64922 0,2.64923 -2.64922,0 -2.64923,0 z m -8.86399,-1.48929 c -0.087,-0.0869 -0.14967,-0.22034 -0.14993,-0.31975 -8.4e-4,-0.34733 1.66903,-1.75245 2.33673,-1.96629 0.3312,-0.10621 0.79965,-0.0514 1.2236,0.14286 0.33932,0.15534 1.60119,1.00052 1.90602,1.27661 0.28449,0.25739 0.08,0.77276 -0.3067,0.77276 -0.10035,0 -0.37656,-0.14966 -0.7269,-0.39409 -1.48193,-1.03426 -1.65399,-1.08442 -2.27209,-0.66206 -0.20198,0.13833 -0.6195,0.48696 -0.92787,0.77545 -0.62873,0.58817 -0.80774,0.65023 -1.08288,0.37493 z m -1.87574,-1.72807 c -0.14843,-0.16441 -0.12953,-0.51077 0.0363,-0.66414 0.24295,-0.22488 2.77567,-2.01143 3.3028,-2.32982 0.80057,-0.48355 1.02392,-0.5659 1.45593,-0.53688 0.46083,0.0302 0.84845,0.21203 2.14827,1.0018 0.5305,0.3224 1.18345,0.70027 1.45098,0.83959 0.57045,0.29745 0.70288,0.46726 0.58498,0.7519 -0.0442,0.10658 -0.15337,0.21732 -0.25557,0.25965 -0.25678,0.10621 -0.53277,-0.0151 -1.84354,-0.8095 -1.25669,-0.76187 -1.97777,-1.14194 -2.16639,-1.14194 -0.27216,0 -1.06835,0.5026 -3.05393,1.92786 -0.93748,0.6729 -1.16897,0.81275 -1.34562,0.81275 -0.12934,0 -0.25308,-0.0446 -0.31416,-0.11112 z m -1.63859,-2.08003 c -0.1217,-0.096 -0.16747,-0.18595 -0.16747,-0.33071 0,-0.24491 0.13448,-0.3753 0.57048,-0.55237 0.42584,-0.17311 1.09911,-0.57873 2.77912,-1.67449 2.12026,-1.38289 2.67815,-1.70381 3.18354,-1.83099 0.54382,-0.1372 1.2321,0.12624 2.35259,0.89904 1.61996,1.11745 2.14046,1.45379 2.50291,1.61733 0.50651,0.22866 0.60902,0.32315 0.60902,0.56085 0,0.23848 -0.21536,0.45792 -0.44946,0.45792 -0.3783,0 -1.18112,-0.47157 -3.2351,-1.90034 -0.64064,-0.44591 -1.18194,-0.72473 -1.4189,-0.73145 -0.34995,-0.008 -0.70615,0.19767 -4.02331,2.34489 -1.0934,0.70775 -1.99241,1.18734 -2.32279,1.23901 -0.16108,0.0265 -0.2541,10e-4 -0.38063,-0.0983 z m -0.95734,-2.15006 c -0.2406,-0.12132 -0.34352,-0.3549 -0.25281,-0.57384 0.0622,-0.15005 0.19533,-0.23698 0.76708,-0.50162 1.79242,-0.82889 5.33454,-2.95782 6.8817,-4.13624 0.76135,-0.57989 1.87691,-1.68053 2.21982,-2.1902 0.72198,-1.07305 0.85195,-2.09991 0.35032,-2.76775 -0.2643,-0.35225 -0.85906,-0.65397 -1.28369,-0.652 -0.36091,0.002 -0.84815,0.18557 -1.28619,0.48597 -0.16667,0.11414 -0.81065,0.70216 -1.43108,1.3065 -1.94856,1.89823 -3.19155,2.80782 -4.87078,3.56433 -0.75536,0.34053 -1.55501,0.61012 -1.80803,0.61012 -0.3833,0 -0.58585,-0.43071 -0.33876,-0.72045 0.0599,-0.0699 0.36881,-0.21052 0.70435,-0.3205 0.77341,-0.25248 2.1243,-0.91499 2.78228,-1.36403 1.02798,-0.70156 2.20011,-1.71239 3.3496,-2.88855 1.04713,-1.07145 1.83421,-1.52129 2.75513,-1.57455 0.45093,-0.0265 0.59043,-0.008 0.91352,0.10772 1.0533,0.38162 1.64144,1.13431 1.72808,2.21159 0.14782,1.83802 -1.36512,3.77072 -4.63545,5.92154 -1.8216,1.19799 -4.03939,2.48273 -5.41008,3.13391 -0.90468,0.42984 -0.94695,0.44277 -1.13503,0.34809 z m 12.31869,-1.43871 c -1.15486,-0.45563 -2.17985,-1.34325 -2.68724,-2.32709 -0.23262,-0.45102 -0.2417,-0.61992 -0.0442,-0.81759 0.2863,-0.28649 0.56596,-0.175 0.81843,0.32504 0.43593,0.86347 1.26246,1.55875 2.39901,2.01804 0.19378,0.0782 0.38125,0.19691 0.41665,0.2623 0.14313,0.26721 -0.0925,0.72064 -0.37138,0.7144 -0.0511,-10e-4 -0.29031,-0.0797 -0.53143,-0.17499 z m -13.05135,-1.04085 c -0.13096,-0.13077 -0.16048,-0.4227 -0.0616,-0.60775 0.0329,-0.0616 0.19072,-0.15987 0.35017,-0.21807 1.82993,-0.66656 3.77817,-1.68983 5.25349,-2.75925 1.26916,-0.91993 2.21712,-1.82207 3.12826,-2.97709 0.32546,-0.41243 0.36386,-0.44141 0.58492,-0.44141 0.18304,0 0.26517,0.034 0.36283,0.16025 0.15515,0.19729 0.15791,0.30501 0.014,0.53994 -0.56759,0.92625 -2.28454,2.58852 -3.7244,3.60578 -1.27228,0.89885 -3.15921,1.90927 -4.69832,2.51581 -0.84984,0.33486 -1.02902,0.36208 -1.20916,0.18179 z m 13.71531,-1.55331 c -0.74454,-0.37266 -1.22166,-0.81437 -1.5034,-1.39158 -0.11682,-0.23925 -0.22976,-0.55041 -0.25111,-0.69131 -0.0348,-0.2298 -0.0196,-0.27553 0.14661,-0.44142 0.32515,-0.32541 0.68123,-0.19804 0.76995,0.27478 0.11887,0.63363 0.5193,1.0823 1.30198,1.45867 0.25712,0.12359 0.50179,0.26872 0.54366,0.32163 0.10873,0.13834 0.094,0.40438 -0.0302,0.55144 -0.19877,0.23508 -0.37297,0.21997 -0.97726,-0.0824 z m 0.32171,-3.26948 c -0.23633,-0.18595 -0.4594,-0.7178 -0.75123,-1.79146 -0.4898,-1.80192 -0.97815,-2.84122 -1.82299,-3.87957 -0.96638,-1.18771 -2.37391,-1.87695 -3.85008,-1.8853 -1.16695,-0.008 -2.36672,0.42089 -3.47544,1.2387 -0.68382,0.50438 -1.65834,1.50115 -2.38265,2.43712 -0.85837,1.10917 -1.32801,1.51695 -1.74719,1.51695 -0.12332,0 -0.22167,-0.0514 -0.3075,-0.16025 -0.24045,-0.30577 -0.14982,-0.51047 0.3871,-0.87489 0.12336,-0.0839 0.49355,-0.49485 0.82261,-0.91355 0.84819,-1.0792 1.43993,-1.73287 2.01296,-2.22353 2.01797,-1.728 4.01038,-2.30438 6.11303,-1.76852 0.7024,0.17915 1.1284,0.36813 1.77093,0.7872 0.94531,0.61622 1.80944,1.64221 2.43627,2.89266 0.40192,0.80175 0.60528,1.35213 0.91689,2.48134 0.3131,1.13461 0.35634,1.25847 0.51915,1.48713 0.16229,0.2279 0.15174,0.4591 -0.0295,0.6401 -0.18497,0.18482 -0.39112,0.19011 -0.61263,0.0189 z m -14.12017,-0.11452 c -0.10949,-0.0862 -0.16047,-0.18406 -0.16047,-0.30841 0,-0.2793 0.094,-0.39726 0.41039,-0.51598 0.33963,-0.12737 1.51837,-0.75677 1.88142,-1.00482 0.40892,-0.27931 1.17393,-1.02992 1.80359,-1.76931 1.38333,-1.62433 2.83806,-2.54185 4.38157,-2.7634 0.25417,-0.034 0.30289,-0.0265 0.44155,0.11452 0.19695,0.19691 0.20485,0.46189 0.0189,0.62766 -0.079,0.0707 -0.3433,0.16517 -0.62383,0.22413 -1.21664,0.25474 -2.32661,1.03449 -3.67456,2.58126 -1.03741,1.1904 -1.53632,1.61042 -2.65835,2.23809 -0.75216,0.42089 -1.37612,0.70231 -1.55658,0.70231 -0.0567,0 -0.17534,-0.0567 -0.26355,-0.12624 z m -4.9108,-6.48166 0,-2.64922 2.64923,0 2.64922,0 0,0.36548 0,0.36548 -2.2838,0 -2.28382,0 0,2.28382 0,2.28381 -0.36541,0 -0.3654,0 z m 23.6299,0.36548 0,-2.28378 -2.25336,0 -2.25337,0 0,-0.36548 0,-0.36548 2.61877,0 2.61878,0 0,2.64918 0,2.64926 -0.3654,0 -0.36541,0 z"
       id="path5447"
       inkscape:connector-curvature="0"
       inkscape:export-xdpi="96"
       inkscape:export-ydpi="96" />
  </g>
</svg>
