<?xml version="1.0" encoding="UTF-8" standalone="no"?>
<!-- Created with Inkscape (http://www.inkscape.org/) -->

<svg
   xmlns:dc="http://purl.org/dc/elements/1.1/"
   xmlns:cc="http://creativecommons.org/ns#"
   xmlns:rdf="http://www.w3.org/1999/02/22-rdf-syntax-ns#"
   xmlns:svg="http://www.w3.org/2000/svg"
   xmlns="http://www.w3.org/2000/svg"
   xmlns:sodipodi="http://sodipodi.sourceforge.net/DTD/sodipodi-0.dtd"
   xmlns:inkscape="http://www.inkscape.org/namespaces/inkscape"
   width="11.288889mm"
   height="11.288889mm"
   viewBox="0 0 40.000001 40"
   id="svg7263"
   version="1.1"
   inkscape:version="0.91 r13725"
   sodipodi:docname="icono-s02.svg">
  <defs
     id="defs7265" />
  <sodipodi:namedview
     id="base"
     pagecolor="#ffffff"
     bordercolor="#666666"
     borderopacity="1.0"
     inkscape:pageopacity="0.0"
     inkscape:pageshadow="2"
     inkscape:zoom="105.83436"
     inkscape:cx="20.587737"
     inkscape:cy="38.509118"
     inkscape:document-units="px"
     inkscape:current-layer="layer1"
     showgrid="false"
     fit-margin-top="0"
     fit-margin-left="0"
     fit-margin-right="0"
     fit-margin-bottom="0"
     inkscape:window-width="1920"
     inkscape:window-height="1027"
     inkscape:window-x="0"
     inkscape:window-y="0"
     inkscape:window-maximized="1" />
  <metadata
     id="metadata7268">
    <rdf:RDF>
      <cc:Work
         rdf:about="">
        <dc:format>image/svg+xml</dc:format>
        <dc:type
           rdf:resource="http://purl.org/dc/dcmitype/StillImage" />
        <dc:title />
      </cc:Work>
    </rdf:RDF>
  </metadata>
  <g
     inkscape:label="Layer 1"
     inkscape:groupmode="layer"
     id="layer1"
     transform="translate(-505.71428,-795.21935)">
    <g
       inkscape:export-ydpi="96"
       inkscape:export-xdpi="96"
       transform="matrix(3.228106,0,0,3.2281052,331.0084,236.47204)"
       id="g6202"
       inkscape:export-filename="E:\Users\Brand1\Downloads\social.png"
       style="fill:#1a1a1a">
      <circle
         r="6.1955833"
         cy="179.28391"
         cx="60.315826"
         id="circle6198"
         style="fill:#1a1a1a;fill-opacity:1;stroke:none;stroke-width:0.26458332" />
      <path
         sodipodi:nodetypes="cscc"
         inkscape:connector-curvature="0"
         id="path6200"
         d="m 60.315826,185.47949 c -3.421725,0 -6.195581,-2.77386 -6.195583,-6.19558 -4e-6,-3.42173 2.773854,-6.19559 6.195583,-6.19559 z"
         style="fill:#1a1a1a;fill-opacity:1;stroke:none;stroke-width:0.26458332" />
    </g>
    <path
       style="fill:#ffffff;stroke-width:0.0170366"
       d="m 524.58317,827.15125 c -1.57407,-0.15383 -2.84474,-0.51462 -4.14417,-1.17619 -3.14468,-1.60105 -5.36534,-4.62709 -5.93359,-8.08555 -0.99484,-6.05472 3.08275,-11.7547 9.1441,-12.78239 0.73557,-0.12473 0.99325,-0.13796 2.12489,-0.10848 0.97301,0.0227 1.4452,0.0673 1.9317,0.17197 0.90786,0.19465 1.83944,0.51787 2.61673,0.90758 0.68942,0.34583 1.66523,0.94159 1.66523,1.01692 0,0.0227 -0.46415,0.50612 -1.03143,1.07233 l -1.03143,1.0295 -0.20806,-0.12019 c -2.53162,-1.46388 -5.34261,-1.58188 -7.87053,-0.33033 -2.35639,1.1667 -4.00503,3.39039 -4.45028,6.00246 -0.15349,0.9004 -0.0969,2.40329 0.12185,3.23743 0.41299,1.57466 1.0838,2.76249 2.17802,3.85674 1.09423,1.09425 2.28208,1.76504 3.85676,2.17803 0.83414,0.21883 2.33701,0.27553 3.23744,0.1217 4.06984,-0.69369 7.0336,-4.31875 6.84971,-8.37808 -0.0584,-1.28893 -0.32852,-2.29421 -0.93092,-3.46461 l -0.35815,-0.69585 1.02509,-1.0266 c 0.56381,-0.56462 1.04438,-1.02659 1.06794,-1.02659 0.0754,0 0.67127,0.97583 1.01693,1.66522 0.39288,0.78361 0.71207,1.70687 0.91577,2.64892 0.12835,0.59361 0.14638,0.86071 0.14751,2.18929 0.002,1.69134 -0.0725,2.19745 -0.51769,3.54145 -1.36485,4.12018 -5.07546,7.08692 -9.41802,7.53003 -0.62744,0.0639 -1.49775,0.0748 -2.00538,0.0227 z m 0.15916,-5.30064 c -2.43171,-0.34205 -4.35749,-2.06846 -4.93504,-4.42462 -0.17556,-0.71622 -0.18928,-1.95061 -0.0291,-2.61838 0.48214,-2.00999 1.92464,-3.60676 3.8505,-4.26236 1.29969,-0.44239 2.94144,-0.3651 4.21579,0.19843 l 0.37085,0.16403 -1.15107,1.15241 -1.15107,1.15242 -0.29477,-0.034 c -0.36703,-0.0423 -1.05375,0.11338 -1.50196,0.34053 -0.66638,0.33752 -1.28724,1.14448 -1.4611,1.89865 -0.15681,0.68016 -0.0249,1.51544 0.33656,2.13237 0.20141,0.34356 0.77645,0.89427 1.11303,1.06571 1.15264,0.58715 2.46511,0.39527 3.37295,-0.49304 0.20429,-0.19993 0.44818,-0.51496 0.54204,-0.70019 0.22711,-0.44821 0.3828,-1.13492 0.34049,-1.50195 l -0.034,-0.2948 1.15051,-1.1492 1.15051,-1.14917 0.16906,0.38151 c 0.56364,1.27188 0.64007,2.89973 0.19725,4.20136 -0.54772,1.61 -1.81337,2.94281 -3.39376,3.57388 -0.83976,0.33524 -2.01086,0.48548 -2.85773,0.36624 z m 0.34065,-5.12432 c -0.40302,-0.21883 -0.4922,-0.81158 -0.18433,-1.22566 0.10269,-0.13796 2.21792,-2.27932 4.7005,-4.75828 l 4.51378,-4.50712 0,-1.37957 0,-1.3796 0.91756,-0.92776 c 0.50466,-0.51027 0.9958,-0.96888 1.09144,-1.01915 0.25149,-0.13228 0.47031,-0.11263 0.67081,0.0597 0.1607,0.13833 0.19354,0.25171 0.3828,1.32359 0.11388,0.64482 0.22311,1.18851 0.24276,1.20816 0.0196,0.0189 0.56331,0.12888 1.20814,0.24265 1.07183,0.18935 1.18538,0.22223 1.3236,0.38279 0.17246,0.20069 0.192,0.41934 0.0598,0.67083 -0.0502,0.0956 -0.50887,0.58677 -1.01914,1.09141 l -0.92776,0.91756 -1.37958,0 -1.37958,0 -4.50714,4.51381 c -2.47894,2.48254 -4.62016,4.59779 -4.75828,4.70045 -0.28584,0.21278 -0.65999,0.24604 -0.95538,0.0858 z"
       id="path8057"
       inkscape:connector-curvature="0"
       inkscape:export-filename="E:\Users\Brand1\Downloads\social.png"
       inkscape:export-xdpi="96"
       inkscape:export-ydpi="96" />
  </g>
</svg>
