<?xml version="1.0" encoding="UTF-8" standalone="no"?>
<!-- Created with Inkscape (http://www.inkscape.org/) -->

<svg
   xmlns:dc="http://purl.org/dc/elements/1.1/"
   xmlns:cc="http://creativecommons.org/ns#"
   xmlns:rdf="http://www.w3.org/1999/02/22-rdf-syntax-ns#"
   xmlns:svg="http://www.w3.org/2000/svg"
   xmlns="http://www.w3.org/2000/svg"
   xmlns:sodipodi="http://sodipodi.sourceforge.net/DTD/sodipodi-0.dtd"
   xmlns:inkscape="http://www.inkscape.org/namespaces/inkscape"
   width="11.288889mm"
   height="11.288889mm"
   viewBox="0 0 40.000001 40"
   id="svg7263"
   version="1.1"
   inkscape:version="0.91 r13725"
   sodipodi:docname="icono-s06.svg">
  <defs
     id="defs7265" />
  <sodipodi:namedview
     id="base"
     pagecolor="#ffffff"
     bordercolor="#666666"
     borderopacity="1.0"
     inkscape:pageopacity="0.0"
     inkscape:pageshadow="2"
     inkscape:zoom="6.6146478"
     inkscape:cx="35.269889"
     inkscape:cy="6.9721747"
     inkscape:document-units="px"
     inkscape:current-layer="layer1"
     showgrid="false"
     fit-margin-top="0"
     fit-margin-left="0"
     fit-margin-right="0"
     fit-margin-bottom="0"
     inkscape:window-width="1920"
     inkscape:window-height="1027"
     inkscape:window-x="0"
     inkscape:window-y="0"
     inkscape:window-maximized="1" />
  <metadata
     id="metadata7268">
    <rdf:RDF>
      <cc:Work
         rdf:about="">
        <dc:format>image/svg+xml</dc:format>
        <dc:type
           rdf:resource="http://purl.org/dc/dcmitype/StillImage" />
        <dc:title></dc:title>
      </cc:Work>
    </rdf:RDF>
  </metadata>
  <g
     inkscape:label="Layer 1"
     inkscape:groupmode="layer"
     id="layer1"
     transform="translate(-505.71428,-795.21935)">
    <g
       inkscape:export-ydpi="96"
       inkscape:export-xdpi="96"
       id="g6196"
       transform="matrix(3.0623457,0,0,3.2542149,341.00637,231.791)"
       inkscape:export-filename="E:\Users\Brand1\Downloads\social.png">
      <circle
         style="fill:#515151;fill-opacity:1;stroke:none;stroke-width:0.26458332"
         id="circle6192"
         cx="60.315826"
         cy="179.28391"
         r="6.1955833" />
      <path
         style="fill:#222222;fill-opacity:1;stroke:none;stroke-width:0.26458332"
         d="m 60.315826,185.47949 c -3.421725,0 -6.195581,-2.77386 -6.195583,-6.19558 -4e-6,-3.42173 2.773854,-6.19559 6.195583,-6.19559 z"
         id="path6194"
         inkscape:connector-curvature="0"
         sodipodi:nodetypes="cscc" />
    </g>
    <g
       inkscape:export-ydpi="96"
       inkscape:export-xdpi="96"
       transform="matrix(3.228106,0,0,3.2281052,331.0084,236.47204)"
       id="g6202"
       inkscape:export-filename="E:\Users\Brand1\Downloads\social.png"
       style="fill:#1a1a1a">
      <circle
         r="6.1955833"
         cy="179.28391"
         cx="60.315826"
         id="circle6198"
         style="fill:#1a1a1a;fill-opacity:1;stroke:none;stroke-width:0.26458332" />
      <path
         sodipodi:nodetypes="cscc"
         inkscape:connector-curvature="0"
         id="path6200"
         d="m 60.315826,185.47949 c -3.421725,0 -6.195581,-2.77386 -6.195583,-6.19558 -4e-6,-3.42173 2.773854,-6.19559 6.195583,-6.19559 z"
         style="fill:#1a1a1a;fill-opacity:1;stroke:none;stroke-width:0.26458332" />
    </g>
    <g
       inkscape:export-ydpi="96"
       inkscape:export-xdpi="96"
       id="g8017"
       transform="matrix(0.53981236,0,0,0.57363396,512.98713,801.69478)"
       style="fill:#ffffff"
       inkscape:export-filename="E:\Users\Brand1\Downloads\social.png">
      <g
         id="g7958"
         style="fill:#ffffff">
        <g
           id="g7956"
           style="fill:#ffffff">
          <path
             id="path7950"
             d="m 17.207,26.989 c 0.391,1.199 1.509,2.01 2.769,2.01 l 20.487,0 c 1.309,0 2.457,-0.873 2.807,-2.135 L 47.048,13.235 C 47.291,12.358 47.111,11.418 46.56,10.693 46.009,9.969 45.153,9.544 44.243,9.544 l -30.269,0 -2.735,-3.809 C 9.801,3.735 7.49,2.548 5.026,2.548 l -2.868,0 C 0.968,2.548 0,3.506 0,4.698 0,5.89 0.968,6.847 2.158,6.847 l 2.404,0 c 1.362,0 2.641,0.66 3.43,1.771 l 3.854,5.428 0,16.957 c 0,2.756 2.234,4.99 4.989,4.99 l 23.083,0 c 1.191,0 2.156,-0.958 2.156,-2.149 0,-1.19 -0.965,-2.149 -2.156,-2.149 l -22.511,0 c -0.656,0 -1.188,-0.531 -1.188,-1.188 l 0,-6.547 z"
             inkscape:connector-curvature="0"
             style="fill:#ffffff" />
          <circle
             id="circle7952"
             r="3.247"
             cy="41.359001"
             cx="16.462999"
             style="fill:#ffffff" />
          <circle
             id="circle7954"
             r="3.247"
             cy="41.359001"
             cx="37.484001"
             style="fill:#ffffff" />
        </g>
      </g>
      <g
         id="g7960"
         style="fill:#ffffff" />
      <g
         id="g7962"
         style="fill:#ffffff" />
      <g
         id="g7964"
         style="fill:#ffffff" />
      <g
         id="g7966"
         style="fill:#ffffff" />
      <g
         id="g7968"
         style="fill:#ffffff" />
      <g
         id="g7970"
         style="fill:#ffffff" />
      <g
         id="g7972"
         style="fill:#ffffff" />
      <g
         id="g7974"
         style="fill:#ffffff" />
      <g
         id="g7976"
         style="fill:#ffffff" />
      <g
         id="g7978"
         style="fill:#ffffff" />
      <g
         id="g7980"
         style="fill:#ffffff" />
      <g
         id="g7982"
         style="fill:#ffffff" />
      <g
         id="g7984"
         style="fill:#ffffff" />
      <g
         id="g7986"
         style="fill:#ffffff" />
      <g
         id="g7988"
         style="fill:#ffffff" />
    </g>
  </g>
</svg>
