<?xml version="1.0" encoding="UTF-8" standalone="no"?>
<!-- Created with Inkscape (http://www.inkscape.org/) -->

<svg
   xmlns:dc="http://purl.org/dc/elements/1.1/"
   xmlns:cc="http://creativecommons.org/ns#"
   xmlns:rdf="http://www.w3.org/1999/02/22-rdf-syntax-ns#"
   xmlns:svg="http://www.w3.org/2000/svg"
   xmlns="http://www.w3.org/2000/svg"
   xmlns:sodipodi="http://sodipodi.sourceforge.net/DTD/sodipodi-0.dtd"
   xmlns:inkscape="http://www.inkscape.org/namespaces/inkscape"
   width="11.288889mm"
   height="11.288889mm"
   viewBox="0 0 40.000001 40"
   id="svg7263"
   version="1.1"
   inkscape:version="0.91 r13725"
   sodipodi:docname="icono-s05.svg">
  <defs
     id="defs7265" />
  <sodipodi:namedview
     id="base"
     pagecolor="#ffffff"
     bordercolor="#666666"
     borderopacity="1.0"
     inkscape:pageopacity="0.0"
     inkscape:pageshadow="2"
     inkscape:zoom="9.3545246"
     inkscape:cx="19.734569"
     inkscape:cy="17.900033"
     inkscape:document-units="px"
     inkscape:current-layer="layer1"
     showgrid="false"
     fit-margin-top="0"
     fit-margin-left="0"
     fit-margin-right="0"
     fit-margin-bottom="0"
     inkscape:window-width="1920"
     inkscape:window-height="1027"
     inkscape:window-x="0"
     inkscape:window-y="0"
     inkscape:window-maximized="1" />
  <metadata
     id="metadata7268">
    <rdf:RDF>
      <cc:Work
         rdf:about="">
        <dc:format>image/svg+xml</dc:format>
        <dc:type
           rdf:resource="http://purl.org/dc/dcmitype/StillImage" />
        <dc:title />
      </cc:Work>
    </rdf:RDF>
  </metadata>
  <g
     inkscape:label="Layer 1"
     inkscape:groupmode="layer"
     id="layer1"
     transform="translate(-505.71428,-795.21935)">
    <g
       inkscape:export-ydpi="96"
       inkscape:export-xdpi="96"
       transform="matrix(3.228106,0,0,3.2281052,331.0084,236.47204)"
       id="g6202"
       inkscape:export-filename="E:\Users\Brand1\Downloads\social.png"
       style="fill:#1a1a1a">
      <circle
         r="6.1955833"
         cy="179.28391"
         cx="60.315826"
         id="circle6198"
         style="fill:#1a1a1a;fill-opacity:1;stroke:none;stroke-width:0.26458332" />
      <path
         sodipodi:nodetypes="cscc"
         inkscape:connector-curvature="0"
         id="path6200"
         d="m 60.315826,185.47949 c -3.421725,0 -6.195581,-2.77386 -6.195583,-6.19558 -4e-6,-3.42173 2.773854,-6.19559 6.195583,-6.19559 z"
         style="fill:#1a1a1a;fill-opacity:1;stroke:none;stroke-width:0.26458332" />
    </g>
    <g
       inkscape:export-ydpi="96"
       inkscape:export-xdpi="96"
       id="g5596"
       transform="matrix(0.93756502,0,0,0.99630751,513.52922,802.27034)"
       style="fill:#ffffff"
       inkscape:export-filename="E:\Users\Brand1\Downloads\social.png">
      <g
         id="g5564"
         style="fill:#ffffff">
        <g
           id="g5562"
           style="fill:#ffffff">
          <path
             id="path5552"
             d="M 21.815,0 4.18,0 C 3.707,0 3.326,0.382 3.326,0.853 l 0,24.287 c 0,0.472 0.381,0.854 0.853,0.854 l 13.083,0 c 0.21,0 0.413,-0.077 0.57,-0.218 l 4.55,-4.072 c 0.181,-0.162 0.285,-0.394 0.285,-0.636 l 0,-20.215 C 22.667,0.382 22.285,0 21.815,0 Z m -0.853,20.59 -3.97,0 0,3.648 -0.053,0.047 -11.906,0 0,-22.578 15.928,0 0,18.883 z"
             style="fill:#ffffff"
             inkscape:connector-curvature="0" />
          <path
             id="path5554"
             d="m 14.562,15.173 -4.337,0 c -0.247,0 -0.446,0.2 -0.446,0.446 l 0,4.337 c 0,0.247 0.199,0.446 0.446,0.446 l 4.337,0 c 0.246,0 0.446,-0.2 0.446,-0.446 l 0,-4.336 c 0.001,-0.246 -0.199,-0.447 -0.446,-0.447 z m -0.444,4.338 -3.446,0 0,-3.446 3.446,0 z"
             style="fill:#ffffff"
             inkscape:connector-curvature="0" />
          <path
             id="path5556"
             d="m 14.953,8.569 0,-0.032 c 0,-0.218 -0.177,-0.394 -0.394,-0.394 l -4.33,0 c -0.217,0 -0.394,0.176 -0.394,0.394 l 0,4.329 c 0,0.219 0.177,0.395 0.394,0.395 l 4.331,0 c 0.217,0 0.394,-0.176 0.394,-0.395 l 0,-1.543 -0.696,0.696 c -0.026,0.026 -0.062,0.039 -0.092,0.062 l 0,0.393 -3.543,0 0,-3.544 3.543,0 0,0.426 z"
             style="fill:#ffffff"
             inkscape:connector-curvature="0" />
          <path
             id="path5558"
             d="m 15.764,8.313 -2.196,2.195 -0.84,-0.841 c -0.227,-0.227 -0.593,-0.227 -0.82,0 -0.227,0.227 -0.227,0.594 0,0.819 l 1.251,1.252 c 0.113,0.113 0.262,0.17 0.41,0.17 0.149,0 0.298,-0.057 0.41,-0.17 l 2.605,-2.606 c 0.228,-0.227 0.228,-0.593 0,-0.82 -0.226,-0.226 -0.593,-0.226 -0.82,0.001 z"
             style="fill:#ffffff"
             inkscape:connector-curvature="0" />
          <rect
             id="rect5560"
             height="1.189"
             width="11.385"
             style="fill:#ffffff"
             y="4.1589999"
             x="7.3049998" />
        </g>
      </g>
      <g
         id="g5566"
         style="fill:#ffffff" />
      <g
         id="g5568"
         style="fill:#ffffff" />
      <g
         id="g5570"
         style="fill:#ffffff" />
      <g
         id="g5572"
         style="fill:#ffffff" />
      <g
         id="g5574"
         style="fill:#ffffff" />
      <g
         id="g5576"
         style="fill:#ffffff" />
      <g
         id="g5578"
         style="fill:#ffffff" />
      <g
         id="g5580"
         style="fill:#ffffff" />
      <g
         id="g5582"
         style="fill:#ffffff" />
      <g
         id="g5584"
         style="fill:#ffffff" />
      <g
         id="g5586"
         style="fill:#ffffff" />
      <g
         id="g5588"
         style="fill:#ffffff" />
      <g
         id="g5590"
         style="fill:#ffffff" />
      <g
         id="g5592"
         style="fill:#ffffff" />
      <g
         id="g5594"
         style="fill:#ffffff" />
    </g>
  </g>
</svg>
