<?xml version="1.0" encoding="UTF-8" standalone="no"?>
<!-- Created with Inkscape (http://www.inkscape.org/) -->

<svg
   xmlns:dc="http://purl.org/dc/elements/1.1/"
   xmlns:cc="http://creativecommons.org/ns#"
   xmlns:rdf="http://www.w3.org/1999/02/22-rdf-syntax-ns#"
   xmlns:svg="http://www.w3.org/2000/svg"
   xmlns="http://www.w3.org/2000/svg"
   xmlns:sodipodi="http://sodipodi.sourceforge.net/DTD/sodipodi-0.dtd"
   xmlns:inkscape="http://www.inkscape.org/namespaces/inkscape"
   width="11.288889mm"
   height="11.288889mm"
   viewBox="0 0 40.000001 40"
   id="svg7263"
   version="1.1"
   inkscape:version="0.91 r13725"
   sodipodi:docname="icono-s01.svg">
  <defs
     id="defs7265" />
  <sodipodi:namedview
     id="base"
     pagecolor="#ffffff"
     bordercolor="#666666"
     borderopacity="1.0"
     inkscape:pageopacity="0.0"
     inkscape:pageshadow="2"
     inkscape:zoom="6.6146478"
     inkscape:cx="35.269889"
     inkscape:cy="6.9721747"
     inkscape:document-units="px"
     inkscape:current-layer="layer1"
     showgrid="false"
     fit-margin-top="0"
     fit-margin-left="0"
     fit-margin-right="0"
     fit-margin-bottom="0"
     inkscape:window-width="1920"
     inkscape:window-height="1027"
     inkscape:window-x="0"
     inkscape:window-y="0"
     inkscape:window-maximized="1" />
  <metadata
     id="metadata7268">
    <rdf:RDF>
      <cc:Work
         rdf:about="">
        <dc:format>image/svg+xml</dc:format>
        <dc:type
           rdf:resource="http://purl.org/dc/dcmitype/StillImage" />
        <dc:title></dc:title>
      </cc:Work>
    </rdf:RDF>
  </metadata>
  <g
     inkscape:label="Layer 1"
     inkscape:groupmode="layer"
     id="layer1"
     transform="translate(-505.71428,-795.21935)">
    <g
       inkscape:export-ydpi="96"
       inkscape:export-xdpi="96"
       id="g6190"
       transform="matrix(3.228106,0,0,3.2281052,331.0084,236.47204)"
       inkscape:export-filename="E:\Users\Brand1\Downloads\social.png"
       style="fill:#1a1a1a">
      <circle
         r="6.1955833"
         cy="179.28391"
         cx="60.315826"
         id="circle6186"
         style="fill:#1a1a1a;fill-opacity:1;stroke:none;stroke-width:0.26458332" />
      <path
         sodipodi:nodetypes="cscc"
         inkscape:connector-curvature="0"
         id="path6188"
         d="m 60.315826,185.47949 c -3.421725,0 -6.195581,-2.77386 -6.195583,-6.19558 -4e-6,-3.42173 2.773854,-6.19559 6.195583,-6.19559 z"
         style="fill:#1a1a1a;fill-opacity:1;stroke:none;stroke-width:0.26458332" />
    </g>
    <path
       style="fill:#ffffff;stroke-width:0.01634111"
       d="m 514.2271,816.88204 0,-10.6848 1.26611,0 1.26612,0 0,0.82246 c 0,1.34151 0.16562,1.90209 0.75123,2.54287 0.66604,0.72873 1.72858,1.01249 2.69364,0.71939 0.45987,-0.13984 0.96171,-0.47112 1.24536,-0.82246 0.50982,-0.63152 0.62127,-1.04738 0.62127,-2.31791 l 0,-0.94435 3.64395,0 3.64393,0 10e-4,0.94189 c 8.2e-4,0.51799 0.0302,1.06576 0.065,1.21716 0.37879,1.64368 2.21979,2.51615 3.73212,1.76871 0.76159,-0.37644 1.29098,-1.07826 1.4454,-1.91641 0.037,-0.20183 0.0675,-0.73656 0.0675,-1.18889 l 0,-0.82246 1.26611,0 1.26611,0 0,10.6848 0,10.68476 -11.48767,0 -11.48768,0 z m 7.13347,6.2688 0,-2.65576 -2.67119,-0.0151 -2.67119,-0.0151 0,2.68796 0,2.68796 2.67119,-0.0151 2.67119,-0.0151 z m 6.9482,0 0,-2.6866 -2.59399,0 -2.594,0 0,2.6866 0,2.6866 2.594,0 2.59399,0 z m 7.10259,-7.2e-4 0,-2.68724 -2.6712,0.0151 -2.67119,0.0151 -0.0163,2.59396 c -0.009,1.42673 -0.003,2.62878 0.0136,2.67118 0.0231,0.0601 0.6178,0.0771 2.68733,0.0771 l 2.65769,0 0,-2.68724 z m -14.05079,-7.07101 0,-2.62488 -2.67119,-0.0151 -2.67119,-0.0151 0,2.65705 0,2.65708 2.67119,-0.0151 2.67119,-0.0151 z m 6.9482,0 0,-2.65576 -2.59399,0 -2.594,0 0,2.65576 0,2.65577 2.594,0 2.59399,0 z m 7.10259,-7.1e-4 0,-2.65637 -2.6712,0.0151 -2.67119,0.0151 -0.0163,2.56309 c -0.009,1.40969 -0.003,2.59782 0.0136,2.6403 0.0231,0.0601 0.61744,0.0771 2.68734,0.0771 l 2.65769,0 0,-2.6564 z m -16.5316,-6.65662 c -0.57839,-0.20674 -0.97578,-0.61251 -1.13152,-1.15559 -0.0486,-0.16932 -0.0647,-0.86593 -0.0512,-2.22338 0.0174,-1.75026 0.0321,-1.99926 0.12888,-2.17626 0.45103,-0.82537 1.3869,-1.19811 2.21901,-0.88388 0.40655,0.15345 0.91284,0.65435 1.04828,1.03703 0.0618,0.17462 0.0822,0.72155 0.0822,2.20834 0,1.93754 -0.003,1.98206 -0.14203,2.26473 -0.16388,0.33298 -0.60321,0.7618 -0.91202,0.89084 -0.36072,0.15042 -0.88161,0.16667 -1.24147,0.0378 z m 12.63683,0.0302 c -0.32946,-0.093 -0.58581,-0.26381 -0.8538,-0.56908 -0.4077,-0.46439 -0.40853,-0.46991 -0.40853,-2.68532 0,-1.98652 10e-4,-2.01025 0.14608,-2.30132 0.20739,-0.41745 0.68368,-0.82594 1.10629,-0.94881 0.87288,-0.25361 1.85655,0.24038 2.14117,1.07581 0.0786,0.23055 0.096,0.62354 0.096,2.16272 0,1.21935 -0.0246,1.96293 -0.0698,2.11389 -0.25387,0.84729 -1.28569,1.39835 -2.15743,1.15211 z"
       id="path8044"
       inkscape:connector-curvature="0"
       inkscape:export-filename="E:\Users\Brand1\Downloads\social.png"
       inkscape:export-xdpi="96"
       inkscape:export-ydpi="96" />
  </g>
</svg>
