<?xml version="1.0" encoding="UTF-8" standalone="no"?>
<!-- Created with Inkscape (http://www.inkscape.org/) -->

<svg
   xmlns:dc="http://purl.org/dc/elements/1.1/"
   xmlns:cc="http://creativecommons.org/ns#"
   xmlns:rdf="http://www.w3.org/1999/02/22-rdf-syntax-ns#"
   xmlns:svg="http://www.w3.org/2000/svg"
   xmlns="http://www.w3.org/2000/svg"
   xmlns:sodipodi="http://sodipodi.sourceforge.net/DTD/sodipodi-0.dtd"
   xmlns:inkscape="http://www.inkscape.org/namespaces/inkscape"
   width="11.288889mm"
   height="11.288889mm"
   viewBox="0 0 40.000001 40"
   id="svg7263"
   version="1.1"
   inkscape:version="0.91 r13725"
   sodipodi:docname="icono-s08.svg">
  <defs
     id="defs7265" />
  <sodipodi:namedview
     id="base"
     pagecolor="#ffffff"
     bordercolor="#666666"
     borderopacity="1.0"
     inkscape:pageopacity="0.0"
     inkscape:pageshadow="2"
     inkscape:zoom="6.6146478"
     inkscape:cx="35.269889"
     inkscape:cy="6.9721747"
     inkscape:document-units="px"
     inkscape:current-layer="layer1"
     showgrid="false"
     fit-margin-top="0"
     fit-margin-left="0"
     fit-margin-right="0"
     fit-margin-bottom="0"
     inkscape:window-width="1920"
     inkscape:window-height="1027"
     inkscape:window-x="0"
     inkscape:window-y="0"
     inkscape:window-maximized="1" />
  <metadata
     id="metadata7268">
    <rdf:RDF>
      <cc:Work
         rdf:about="">
        <dc:format>image/svg+xml</dc:format>
        <dc:type
           rdf:resource="http://purl.org/dc/dcmitype/StillImage" />
        <dc:title></dc:title>
      </cc:Work>
    </rdf:RDF>
  </metadata>
  <g
     inkscape:label="Layer 1"
     inkscape:groupmode="layer"
     id="layer1"
     transform="translate(-505.71428,-795.21935)">
    <g
       inkscape:export-ydpi="96"
       inkscape:export-xdpi="96"
       id="g6196"
       transform="matrix(3.0623457,0,0,3.2542149,341.00637,231.791)"
       inkscape:export-filename="E:\Users\Brand1\Downloads\social.png">
      <circle
         style="fill:#515151;fill-opacity:1;stroke:none;stroke-width:0.26458332"
         id="circle6192"
         cx="60.315826"
         cy="179.28391"
         r="6.1955833" />
      <path
         style="fill:#222222;fill-opacity:1;stroke:none;stroke-width:0.26458332"
         d="m 60.315826,185.47949 c -3.421725,0 -6.195581,-2.77386 -6.195583,-6.19558 -4e-6,-3.42173 2.773854,-6.19559 6.195583,-6.19559 z"
         id="path6194"
         inkscape:connector-curvature="0"
         sodipodi:nodetypes="cscc" />
    </g>
    <g
       inkscape:export-ydpi="96"
       inkscape:export-xdpi="96"
       transform="matrix(3.228106,0,0,3.2281052,331.0084,236.47204)"
       id="g6202"
       inkscape:export-filename="E:\Users\Brand1\Downloads\social.png"
       style="fill:#1a1a1a">
      <circle
         r="6.1955833"
         cy="179.28391"
         cx="60.315826"
         id="circle6198"
         style="fill:#1a1a1a;fill-opacity:1;stroke:none;stroke-width:0.26458332" />
      <path
         sodipodi:nodetypes="cscc"
         inkscape:connector-curvature="0"
         id="path6200"
         d="m 60.315826,185.47949 c -3.421725,0 -6.195581,-2.77386 -6.195583,-6.19558 -4e-6,-3.42173 2.773854,-6.19559 6.195583,-6.19559 z"
         style="fill:#1a1a1a;fill-opacity:1;stroke:none;stroke-width:0.26458332" />
    </g>
    <path
       style="fill:#ffffff;stroke-width:0.01605206"
       d="m 518.43891,827.29169 c -0.87035,-0.13304 -1.89905,-0.57445 -2.60877,-1.11885 -0.41134,-0.31559 -1.00195,-0.93071 -1.26849,-1.32136 -0.28996,-0.42486 -0.65748,-1.23927 -0.8047,-1.78307 -0.18739,-0.69203 -0.18747,-2.01944 -2.2e-4,-2.77765 0.15999,-0.64773 0.56195,-1.48535 0.97533,-2.0324 0.38723,-0.51247 5.28651,-5.37577 5.93037,-5.8868 0.89237,-0.70832 1.85161,-1.20991 2.80314,-1.46574 0.67835,-0.18255 1.81022,-0.18255 2.45442,1.9e-4 0.75317,0.21354 1.3638,0.55884 1.94356,1.09939 0.42421,0.39533 0.55184,0.67003 0.55184,1.18707 0,0.50778 -0.1401,0.82019 -0.50953,1.13643 -0.59059,0.50551 -1.42564,0.46552 -2.04947,-0.0979 -0.721,-0.65137 -1.69216,-0.61996 -2.7796,0.09 -0.49689,0.32428 -2.22363,1.95844 -4.58964,4.34332 -1.58219,1.59477 -1.7502,1.83118 -1.85711,2.61294 -0.24238,1.77233 1.32775,3.32235 3.08396,3.04437 0.73075,-0.11566 1.07983,-0.33336 2.02644,-1.26384 0.99718,-0.98026 1.23025,-1.126 1.79469,-1.12229 0.60351,0.004 1.06706,0.29291 1.35175,0.84208 0.17393,0.33524 0.17367,0.94114 -5.5e-4,1.27483 -0.19608,0.37569 -1.96546,2.07984 -2.50395,2.41179 -0.53822,0.33185 -1.25033,0.62646 -1.81088,0.74933 -0.52271,0.11452 -1.6302,0.15534 -2.13262,0.0782 z m 7.887,-7.33799 c -0.98326,-0.11074 -1.89263,-0.54353 -2.70901,-1.28965 -0.39546,-0.36132 -0.56569,-0.67082 -0.61108,-1.11061 -0.0421,-0.40698 0.095,-0.79412 0.40136,-1.13393 0.29133,-0.32315 0.61549,-0.46409 1.06831,-0.46409 0.45963,0 0.78995,0.14551 1.21938,0.53832 0.75348,0.68863 1.69144,0.63337 2.739,-0.16101 0.51281,-0.38907 5.75001,-5.57159 5.95815,-5.89599 0.29598,-0.46118 0.43292,-0.92062 0.43273,-1.45141 -2.3e-4,-0.84597 -0.26752,-1.43214 -0.93421,-2.04938 -0.7851,-0.72687 -1.80314,-0.99375 -2.61826,-0.6864 -0.31725,0.11944 -0.49132,0.26268 -1.40375,1.15386 -0.58319,0.56965 -1.15803,1.07675 -1.30615,1.15234 -0.3374,0.17234 -0.95445,0.18595 -1.26672,0.0302 -0.29307,-0.14816 -0.59278,-0.44232 -0.74336,-0.73013 -0.17983,-0.34356 -0.17488,-0.93649 0.0106,-1.30443 0.188,-0.37266 2.01547,-2.1524 2.64546,-2.5768 1.51985,-1.02384 3.41453,-1.14815 5.11435,-0.33525 1.33757,0.63946 2.37978,1.65918 2.981,2.91678 0.39527,0.82685 0.5048,1.33557 0.50841,2.36171 0.003,0.96333 -0.0636,1.34362 -0.38215,2.16968 -0.38153,0.98925 -0.57438,1.2147 -3.66264,4.28133 -1.86509,1.85197 -3.06832,2.99808 -3.45607,3.29186 -1.29975,0.98479 -2.70054,1.44011 -3.98567,1.29554 z"
       id="path8003"
       inkscape:connector-curvature="0"
       inkscape:export-filename="E:\Users\Brand1\Downloads\social.png"
       inkscape:export-xdpi="96"
       inkscape:export-ydpi="96" />
  </g>
</svg>
