<?xml version="1.0" encoding="UTF-8" standalone="no"?>
<!-- Created with Inkscape (http://www.inkscape.org/) -->

<svg
   xmlns:dc="http://purl.org/dc/elements/1.1/"
   xmlns:cc="http://creativecommons.org/ns#"
   xmlns:rdf="http://www.w3.org/1999/02/22-rdf-syntax-ns#"
   xmlns:svg="http://www.w3.org/2000/svg"
   xmlns="http://www.w3.org/2000/svg"
   xmlns:sodipodi="http://sodipodi.sourceforge.net/DTD/sodipodi-0.dtd"
   xmlns:inkscape="http://www.inkscape.org/namespaces/inkscape"
   width="11.288889mm"
   height="11.288889mm"
   viewBox="0 0 40.000001 40"
   id="svg7263"
   version="1.1"
   inkscape:version="0.91 r13725"
   sodipodi:docname="icono-s04.svg">
  <defs
     id="defs7265" />
  <sodipodi:namedview
     id="base"
     pagecolor="#ffffff"
     bordercolor="#666666"
     borderopacity="1.0"
     inkscape:pageopacity="0.0"
     inkscape:pageshadow="2"
     inkscape:zoom="13.229296"
     inkscape:cx="13.511827"
     inkscape:cy="17.112168"
     inkscape:document-units="px"
     inkscape:current-layer="layer1"
     showgrid="false"
     fit-margin-top="0"
     fit-margin-left="0"
     fit-margin-right="0"
     fit-margin-bottom="0"
     inkscape:window-width="1920"
     inkscape:window-height="1027"
     inkscape:window-x="0"
     inkscape:window-y="0"
     inkscape:window-maximized="1" />
  <metadata
     id="metadata7268">
    <rdf:RDF>
      <cc:Work
         rdf:about="">
        <dc:format>image/svg+xml</dc:format>
        <dc:type
           rdf:resource="http://purl.org/dc/dcmitype/StillImage" />
        <dc:title />
      </cc:Work>
    </rdf:RDF>
  </metadata>
  <g
     inkscape:label="Layer 1"
     inkscape:groupmode="layer"
     id="layer1"
     transform="translate(-505.71428,-795.21935)">
    <g
       inkscape:export-ydpi="96"
       inkscape:export-xdpi="96"
       transform="matrix(3.228106,0,0,3.2281052,331.0084,236.47204)"
       id="g6202"
       inkscape:export-filename="E:\Users\Brand1\Downloads\social.png"
       style="fill:#1a1a1a">
      <circle
         r="6.1955833"
         cy="179.28391"
         cx="60.315826"
         id="circle6198"
         style="fill:#1a1a1a;fill-opacity:1;stroke:none;stroke-width:0.26458332" />
      <path
         sodipodi:nodetypes="cscc"
         inkscape:connector-curvature="0"
         id="path6200"
         d="m 60.315826,185.47949 c -3.421725,0 -6.195581,-2.77386 -6.195583,-6.19558 -4e-6,-3.42173 2.773854,-6.19559 6.195583,-6.19559 z"
         style="fill:#1a1a1a;fill-opacity:1;stroke:none;stroke-width:0.26458332" />
    </g>
    <path
       style="fill:#ffffff;stroke-width:0.01992007"
       d="m 532.84784,824.04244 c -1.14832,-1.15359 -1.48447,-1.53456 -1.48447,-1.68257 0,-0.22186 0.80594,-1.04239 1.02379,-1.04239 0.0723,0 0.61334,0.47773 1.20223,1.06163 l 1.07072,1.06155 2.39839,-2.00164 c 2.48014,-2.06985 2.63518,-2.17028 2.91651,-1.88893 0.32999,0.32996 0.64884,0.7852 0.64884,0.92633 0,0.19767 0.079,0.12699 -3.16212,2.82769 -2.20182,1.83469 -2.71297,2.22731 -2.90108,2.22829 -0.19722,10e-4 -0.43063,-0.20182 -1.71281,-1.48996 z m -9.65327,-3.78497 c -1.82689,-0.15572 -3.81315,-0.60998 -4.2819,-0.97871 -0.19578,-0.15383 -0.19774,-0.16554 -0.19646,-1.14769 0.002,-1.1684 0.12163,-1.81791 0.46584,-2.51947 0.47858,-0.97538 1.58286,-1.82578 2.66175,-2.04971 0.39608,-0.0824 0.43664,-0.0764 0.70111,0.0986 1.83585,1.21489 4.05848,1.25881 5.98218,0.1183 l 0.51406,-0.30463 0.52874,0.11906 c 1.1547,0.26078 2.21568,1.10139 2.71733,2.15297 0.33634,0.70503 0.43134,1.21991 0.43134,2.3376 0,0.76875 -0.0193,0.90387 -0.15231,1.07308 -0.28158,0.35792 -1.71964,0.76316 -3.53685,0.99647 -1.12887,0.14476 -4.62588,0.2075 -5.83486,0.10394 z m -9.97572,-4.86387 c -1.28586,-0.13304 -2.37217,-0.41624 -2.4978,-0.65099 -0.13267,-0.24794 -0.0378,-1.53335 0.14326,-1.94192 0.21485,-0.48488 0.64194,-0.93165 1.1002,-1.15102 0.55807,-0.26721 0.69594,-0.26003 1.36338,0.0718 0.58393,0.29027 0.61774,0.29745 1.39851,0.29745 0.79129,0 0.8073,-0.003 1.45353,-0.3239 l 0.65341,-0.32391 0.45257,0.12699 c 0.75534,0.21203 1.35385,0.72601 1.66546,1.43048 0.11886,0.26872 0.16055,0.52622 0.16788,1.0368 l 0.01,0.67929 -0.24748,0.16819 c -0.29904,0.20372 -1.29596,0.4436 -2.29054,0.55177 -0.67718,0.0737 -2.7642,0.0911 -3.37212,0.0302 z m 21.75837,0.008 c -1.51512,-0.18067 -2.49745,-0.45068 -2.64567,-0.7276 -0.12405,-0.23169 -0.0246,-1.42269 0.15235,-1.82249 0.28849,-0.65219 0.98125,-1.23413 1.64619,-1.38285 0.29428,-0.0658 0.36673,-0.0476 0.90524,0.22752 0.49755,0.25399 0.67847,0.30539 1.20596,0.34167 0.73635,0.0507 1.40241,-0.10053 1.93526,-0.43827 0.31759,-0.20145 0.37009,-0.21241 0.688,-0.14098 0.46242,0.10356 0.73305,0.2521 1.13469,0.6223 0.53683,0.49482 0.71781,0.92973 0.75835,1.82234 0.0396,0.87216 0.0174,0.91113 -0.64337,1.12619 -0.79363,0.25851 -1.55142,0.34658 -3.21716,0.3753 -0.91099,0.0151 -1.77492,0.0113 -1.91985,-0.003 z M 524.73798,813.07 c -1.47785,-0.31975 -2.73924,-1.53966 -3.12529,-3.02184 -0.14608,-0.56089 -0.14286,-1.5001 0.007,-2.08192 0.34795,-1.34952 1.44993,-2.49316 2.80609,-2.9122 0.59315,-0.18331 1.66986,-0.19767 2.30985,-0.034 1.74136,0.45355 3.03944,2.1718 3.04521,4.03083 0.002,0.572 -0.24639,1.49949 -0.53913,2.01491 -0.38852,0.68409 -1.07663,1.31871 -1.80559,1.66529 -0.929,0.44172 -1.74229,0.54297 -2.6983,0.336 z m 1.67146,-1.47061 c 0.68994,-0.14325 1.33864,-0.64071 1.3398,-1.02773 2.3e-4,-0.0729 -0.47239,-0.0941 -2.11287,-0.0941 l -2.11315,0 0.0509,0.16932 c 0.028,0.0934 0.17204,0.29594 0.32009,0.45029 0.47478,0.49542 1.53114,0.70632 2.51522,0.50215 z m -12.29245,-0.46785 c -1.09021,-0.30804 -1.72541,-1.09323 -1.78618,-2.20782 -0.0479,-0.87851 0.10367,-1.28946 0.69314,-1.87887 0.57843,-0.57846 0.99598,-0.73667 1.83751,-0.69631 0.68282,0.034 1.1286,0.22186 1.59791,0.67707 0.47249,0.45853 0.70222,1.02482 0.70222,1.73095 0,0.99855 -0.51778,1.80635 -1.42361,2.22104 -0.47807,0.21883 -1.16157,0.28384 -1.62099,0.15382 z m 1.1052,-0.84084 c 0.34624,-0.1028 0.86369,-0.51019 0.7687,-0.60517 -0.0219,-0.0227 -0.61127,-0.034 -1.30912,-0.0189 l -1.26881,0.0189 0.22545,0.25209 c 0.15031,0.16819 0.35006,0.28573 0.59936,0.35263 0.48744,0.13077 0.54183,0.13077 0.98441,-5.7e-4 z m 20.80621,0.87421 c -0.72668,-0.15421 -1.43198,-0.72839 -1.75358,-1.42742 -0.23402,-0.50868 -0.23085,-1.49502 0.006,-1.97642 0.25013,-0.50752 0.62761,-0.91181 1.08314,-1.16005 0.33675,-0.18331 0.51272,-0.22489 1.06431,-0.25134 0.62164,-0.0302 0.68954,-0.0151 1.14419,0.20598 0.58741,0.28914 1.02835,0.766 1.24899,1.35069 0.21944,0.58137 0.17806,1.39208 -0.0987,1.93391 -0.23187,0.454 -0.7728,0.97228 -1.22226,1.17112 -0.37036,0.16366 -1.077,0.23736 -1.47239,0.15345 z m 1.31286,-1.01401 c 0.16146,-0.09 0.34348,-0.23924 0.40444,-0.3326 l 0.11086,-0.16932 -1.28909,0 c -0.709,0 -1.28908,0.0302 -1.28908,0.0669 0,0.16781 0.30206,0.40875 0.67916,0.5416 0.48992,0.17273 0.94422,0.13796 1.38373,-0.10658 z"
       id="path8070"
       inkscape:connector-curvature="0"
       inkscape:export-filename="E:\Users\Brand1\Downloads\social.png"
       inkscape:export-xdpi="96"
       inkscape:export-ydpi="96" />
  </g>
</svg>
