<?xml version="1.0" encoding="UTF-8" standalone="no"?>
<!-- Created with Inkscape (http://www.inkscape.org/) -->

<svg
   xmlns:dc="http://purl.org/dc/elements/1.1/"
   xmlns:cc="http://creativecommons.org/ns#"
   xmlns:rdf="http://www.w3.org/1999/02/22-rdf-syntax-ns#"
   xmlns:svg="http://www.w3.org/2000/svg"
   xmlns="http://www.w3.org/2000/svg"
   xmlns:sodipodi="http://sodipodi.sourceforge.net/DTD/sodipodi-0.dtd"
   xmlns:inkscape="http://www.inkscape.org/namespaces/inkscape"
   width="11.288889mm"
   height="11.288889mm"
   viewBox="0 0 40.000001 40"
   id="svg7263"
   version="1.1"
   inkscape:version="0.91 r13725"
   sodipodi:docname="icono-s07.svg">
  <defs
     id="defs7265" />
  <sodipodi:namedview
     id="base"
     pagecolor="#ffffff"
     bordercolor="#666666"
     borderopacity="1.0"
     inkscape:pageopacity="0.0"
     inkscape:pageshadow="2"
     inkscape:zoom="6.6146478"
     inkscape:cx="35.269889"
     inkscape:cy="6.9721747"
     inkscape:document-units="px"
     inkscape:current-layer="layer1"
     showgrid="false"
     fit-margin-top="0"
     fit-margin-left="0"
     fit-margin-right="0"
     fit-margin-bottom="0"
     inkscape:window-width="1920"
     inkscape:window-height="1027"
     inkscape:window-x="0"
     inkscape:window-y="0"
     inkscape:window-maximized="1" />
  <metadata
     id="metadata7268">
    <rdf:RDF>
      <cc:Work
         rdf:about="">
        <dc:format>image/svg+xml</dc:format>
        <dc:type
           rdf:resource="http://purl.org/dc/dcmitype/StillImage" />
        <dc:title></dc:title>
      </cc:Work>
    </rdf:RDF>
  </metadata>
  <g
     inkscape:label="Layer 1"
     inkscape:groupmode="layer"
     id="layer1"
     transform="translate(-505.71428,-795.21935)">
    <g
       inkscape:export-ydpi="96"
       inkscape:export-xdpi="96"
       id="g6196"
       transform="matrix(3.0623457,0,0,3.2542149,341.00637,231.791)"
       inkscape:export-filename="E:\Users\Brand1\Downloads\social.png">
      <circle
         style="fill:#515151;fill-opacity:1;stroke:none;stroke-width:0.26458332"
         id="circle6192"
         cx="60.315826"
         cy="179.28391"
         r="6.1955833" />
      <path
         style="fill:#222222;fill-opacity:1;stroke:none;stroke-width:0.26458332"
         d="m 60.315826,185.47949 c -3.421725,0 -6.195581,-2.77386 -6.195583,-6.19558 -4e-6,-3.42173 2.773854,-6.19559 6.195583,-6.19559 z"
         id="path6194"
         inkscape:connector-curvature="0"
         sodipodi:nodetypes="cscc" />
    </g>
    <g
       inkscape:export-ydpi="96"
       inkscape:export-xdpi="96"
       transform="matrix(3.228106,0,0,3.2281052,331.0084,236.47204)"
       id="g6202"
       inkscape:export-filename="E:\Users\Brand1\Downloads\social.png"
       style="fill:#1a1a1a">
      <circle
         r="6.1955833"
         cy="179.28391"
         cx="60.315826"
         id="circle6198"
         style="fill:#1a1a1a;fill-opacity:1;stroke:none;stroke-width:0.26458332" />
      <path
         sodipodi:nodetypes="cscc"
         inkscape:connector-curvature="0"
         id="path6200"
         d="m 60.315826,185.47949 c -3.421725,0 -6.195581,-2.77386 -6.195583,-6.19558 -4e-6,-3.42173 2.773854,-6.19559 6.195583,-6.19559 z"
         style="fill:#1a1a1a;fill-opacity:1;stroke:none;stroke-width:0.26458332" />
    </g>
    <g
       id="g8031"
       style="fill:#ffffff"
       transform="matrix(2.3553609,0,0,2.3553607,504.5448,30.481635)"
       inkscape:export-filename="E:\Users\Brand1\Downloads\social.png"
       inkscape:export-xdpi="96"
       inkscape:export-ydpi="96">
      <path
         inkscape:connector-curvature="0"
         id="path8022"
         d="m 4.5831705,330.79225 1.1876522,0 1.6413619,4.73726 -1.3210962,0 -0.2869047,-0.92744 -1.2610464,0 -0.2802325,0.92744 -1.3277684,0 z"
         style="font-style:normal;font-variant:normal;font-weight:900;font-stretch:normal;font-size:medium;line-height:1.25;font-family:Raleway;-inkscape-font-specification:'Raleway Heavy';text-align:center;letter-spacing:0px;word-spacing:0px;text-anchor:middle;fill:#ffffff;fill-opacity:1;stroke:none;stroke-width:0.83402538" />
      <path
         id="path8026"
         d="m 7.2831418,335.52951 0,-4.73726 1.8215114,0 q 0.5871539,0 1.0341918,0.18682 0.447037,0.18682 0.747286,0.50709 0.30025,0.32026 0.45371,0.75395 0.153461,0.42703 0.153461,0.9141 0,0.54044 -0.173477,0.98081 -0.166805,0.43369 -0.480399,0.74729 -0.313594,0.30692 -0.753959,0.4804 -0.4403653,0.1668 -0.9808138,0.1668 z"
         style="font-style:normal;font-variant:normal;font-weight:900;font-stretch:normal;font-size:medium;line-height:1.25;font-family:Raleway;-inkscape-font-specification:'Raleway Heavy';text-align:center;letter-spacing:0px;word-spacing:0px;text-anchor:middle;fill:#ffffff;fill-opacity:1;stroke:none;stroke-width:0.83402538"
         inkscape:connector-curvature="0" />
      <path
         d="m 14.366541,332.3402 q -0.200166,-0.1201 -0.413677,-0.21351 -0.180149,-0.0801 -0.407004,-0.14679 -0.220183,-0.0734 -0.433693,-0.0734 -0.173478,0 -0.280233,0.0534 -0.100083,0.0534 -0.100083,0.18015 0,0.0934 0.06005,0.15346 0.06005,0.06 0.173477,0.11343 0.113428,0.0467 0.273561,0.0934 0.166805,0.0467 0.373643,0.11343 0.326938,0.10008 0.587154,0.22018 0.266888,0.1201 0.45371,0.28691 0.186821,0.16013 0.286904,0.39366 0.100083,0.23352 0.100083,0.56713 0,0.42702 -0.160132,0.7206 -0.153461,0.28691 -0.413677,0.46038 -0.253544,0.17348 -0.580482,0.25355 -0.320265,0.0734 -0.647203,0.0734 -0.260216,0 -0.533777,-0.04 -0.27356,-0.04 -0.54712,-0.11343 -0.266888,-0.0734 -0.520432,-0.17348 -0.246872,-0.10008 -0.460382,-0.22685 l 0.560465,-1.14095 q 0.233527,0.14679 0.487071,0.26022 0.21351,0.10008 0.480398,0.18015 0.273561,0.0801 0.553793,0.0801 0.213511,0 0.293577,-0.0534 0.08674,-0.06 0.08674,-0.15346 0,-0.10008 -0.08674,-0.1668 -0.08007,-0.0734 -0.226855,-0.12677 -0.146788,-0.0534 -0.340282,-0.10676 -0.186822,-0.0534 -0.400332,-0.12677 -0.313594,-0.10675 -0.540449,-0.22685 -0.226855,-0.12678 -0.373643,-0.28024 -0.146789,-0.16013 -0.220183,-0.3603 -0.06672,-0.20016 -0.06672,-0.46038 0,-0.39366 0.140116,-0.69391 0.146789,-0.30025 0.39366,-0.50041 0.246872,-0.20017 0.560465,-0.30025 0.320266,-0.10676 0.673893,-0.10676 0.260216,0 0.507087,0.0534 0.246872,0.0467 0.473727,0.12677 0.233527,0.0734 0.433693,0.16681 0.200166,0.0867 0.360299,0.1668 z"
         style="font-style:normal;font-variant:normal;font-weight:900;font-stretch:normal;font-size:medium;line-height:1.25;font-family:Raleway;-inkscape-font-specification:'Raleway Heavy';text-align:center;letter-spacing:0px;word-spacing:0px;text-anchor:middle;fill:#ffffff;fill-opacity:1;stroke:none;stroke-width:0.83402538"
         id="path8013"
         inkscape:connector-curvature="0" />
    </g>
  </g>
</svg>
