<?xml version="1.0" encoding="UTF-8" standalone="no"?>
<!-- Created with Inkscape (http://www.inkscape.org/) -->

<svg
   xmlns:dc="http://purl.org/dc/elements/1.1/"
   xmlns:cc="http://creativecommons.org/ns#"
   xmlns:rdf="http://www.w3.org/1999/02/22-rdf-syntax-ns#"
   xmlns:svg="http://www.w3.org/2000/svg"
   xmlns="http://www.w3.org/2000/svg"
   xmlns:sodipodi="http://sodipodi.sourceforge.net/DTD/sodipodi-0.dtd"
   xmlns:inkscape="http://www.inkscape.org/namespaces/inkscape"
   width="112.88799mm"
   height="62.047791mm"
   viewBox="0 0 399.9968 219.85437"
   id="svg2"
   version="1.1"
   inkscape:version="0.91 r13725"
   sodipodi:docname="logo-social-white.svg">
  <defs
     id="defs4" />
  <sodipodi:namedview
     id="base"
     pagecolor="#98919a"
     bordercolor="#666666"
     borderopacity="1.0"
     inkscape:pageopacity="0"
     inkscape:pageshadow="2"
     inkscape:zoom="0.80567555"
     inkscape:cx="163.43074"
     inkscape:cy="81.752453"
     inkscape:document-units="px"
     inkscape:current-layer="layer1"
     showgrid="false"
     fit-margin-top="0"
     fit-margin-left="0"
     fit-margin-right="0"
     fit-margin-bottom="0"
     inkscape:window-width="1920"
     inkscape:window-height="1027"
     inkscape:window-x="0"
     inkscape:window-y="0"
     inkscape:window-maximized="1" />
  <metadata
     id="metadata7">
    <rdf:RDF>
      <cc:Work
         rdf:about="">
        <dc:format>image/svg+xml</dc:format>
        <dc:type
           rdf:resource="http://purl.org/dc/dcmitype/StillImage" />
        <dc:title></dc:title>
      </cc:Work>
    </rdf:RDF>
  </metadata>
  <g
     inkscape:label="Layer 1"
     inkscape:groupmode="layer"
     id="layer1"
     transform="translate(-223.2489,-430.13087)">
    <flowRoot
       xml:space="preserve"
       id="flowRoot4428"
       style="font-style:normal;font-weight:normal;font-size:40px;line-height:125%;font-family:sans-serif;letter-spacing:0px;word-spacing:0px;fill:#000000;fill-opacity:1;stroke:none;stroke-width:1px;stroke-linecap:butt;stroke-linejoin:miter;stroke-opacity:1"><flowRegion
         id="flowRegion4430"><rect
           id="rect4432"
           width="54.612553"
           height="62.059723"
           x="561.0199"
           y="663.24774" /></flowRegion><flowPara
         id="flowPara4434"></flowPara></flowRoot>    <g
       id="g4491"
       style="fill:#ffffff;fill-opacity:1">
      <path
         d="m 289.22239,557.44885 c 0,-1.57991 -0.3068,-3.02014 -0.92422,-4.32323 -0.62062,-1.3031 -1.78658,-2.52391 -3.50081,-3.65479 -1.71418,-1.13088 -4.04871,-2.21265 -6.9987,-3.24147 -2.94998,-1.02882 -6.75957,-2.02321 -11.42374,-2.98506 -5.69814,-1.23548 -10.96027,-2.77777 -15.79881,-4.63131 -4.8386,-1.85164 -9.02439,-4.15103 -12.55736,-6.8969 -3.53302,-2.74333 -6.29611,-5.93504 -8.28685,-9.57006 -1.98827,-3.63756 -2.98488,-7.85811 -2.98488,-12.66163 0,-4.66448 1.01405,-9.08913 3.03967,-13.27524 2.02314,-4.18546 4.93824,-7.87596 8.74783,-11.06513 3.80703,-3.19173 8.47368,-5.71308 13.99496,-7.56407 5.5237,-1.85355 11.75253,-2.77777 18.68151,-2.77777 7.20554,0 13.68855,0.88914 19.45418,2.67572 5.76282,1.78402 10.65119,4.27029 14.66507,7.46201 4.01644,3.18916 7.10356,6.98109 9.26582,11.3713 2.16034,4.39275 3.24146,9.19628 3.24146,14.41122 l -29.74665,0 c 0,-4.25564 -1.37261,-7.77137 -4.11575,-10.55169 -2.74561,-2.77776 -7.03358,-4.16824 -12.86625,-4.16824 -5.00801,0 -8.88732,1.13343 -11.63051,3.39583 -2.74321,2.26494 -4.11601,5.14731 -4.11601,8.64838 0,1.64433 0.35878,3.10434 1.08131,4.37235 0.72007,1.27057 1.88609,2.43462 3.49815,3.49788 1.61199,1.06646 3.73975,2.04362 6.38083,2.93532 2.641,0.89168 5.88247,1.7164 9.72695,2.46905 6.03698,1.16851 11.62796,2.60874 16.77528,4.32259 5.14796,1.71706 9.59047,3.92969 13.3301,6.6405 3.73961,2.71079 6.67236,6.00456 8.80018,9.88131 2.12527,3.87675 3.19172,8.55845 3.19172,14.04701 0,4.94067 -1.09898,9.48778 -3.29376,13.63625 -2.19799,4.15356 -5.3374,7.73628 -9.41826,10.75579 -4.08341,3.0227 -9.00686,5.3895 -14.76968,7.10368 -5.76563,1.71418 -12.21375,2.57123 -19.352,2.57123 -7.82093,0 -14.7175,-1.09624 -20.68724,-3.29128 -5.96726,-2.19752 -10.99517,-5.08054 -15.07629,-8.64539 -4.08367,-3.56804 -7.15324,-7.58193 -9.21124,-12.0442 -2.0605,-4.45975 -3.0895,-8.95456 -3.0895,-13.4819 l 28.20174,0 c 0.137,2.88045 0.77236,5.36927 1.9035,7.45946 1.13367,2.09592 2.6236,3.79511 4.47733,5.09565 1.85367,1.30565 3.99641,2.26432 6.43312,2.88237 2.43672,0.61807 4.99303,0.92677 7.66894,0.92677 5.69317,0 9.99855,-1.08112 12.91613,-3.24146 2.91527,-2.16225 4.37273,-4.99297 4.37273,-8.49085"
         style="fill:#ffffff;fill-opacity:1;fill-rule:nonzero;stroke:none"
         id="letra-s"
         inkscape:connector-curvature="0" />
      <path
         d="m 577.44604,590.27968 c -8.64837,0 -16.38466,-1.4052 -23.2114,-4.22067 -6.82673,-2.81298 -12.62464,-6.6521 -17.39309,-11.52578 -4.76909,-4.87113 -8.40665,-10.58421 -10.90823,-17.13667 -2.50669,-6.55056 -3.75747,-13.56927 -3.75747,-21.04851 l 0,-4.0139 c 0,-8.43917 1.21634,-16.17546 3.65287,-23.20885 2.43652,-7.03085 5.89995,-13.08771 10.39477,-18.1655 4.49481,-5.0778 9.94893,-9.03939 16.36427,-11.88732 6.41852,-2.84537 13.60371,-4.27029 21.56197,-4.27029 8.03032,0 15.09623,1.32032 21.20286,3.96095 6.10662,2.64381 11.23672,6.34645 15.38773,11.11489 4.15103,4.76909 7.27259,10.51724 9.36596,17.23937 2.09273,6.7266 3.13942,14.20392 3.13942,22.43835 l 0,12.65972 -70.91435,0 c 0.47837,3.63757 1.45745,6.92879 2.93467,9.88132 1.47276,2.94999 3.36138,5.47135 5.65822,7.56471 2.30003,2.09273 4.9936,3.72176 8.08008,4.88836 3.08966,1.16851 6.5531,1.74895 10.39732,1.74895 5.41904,0 10.42731,-1.01162 15.02673,-3.03483 4.59432,-2.02575 8.54315,-5.16263 11.83501,-9.42079 l 14.61531,16.36745 c -1.78656,2.53856 -4.01389,5.00763 -6.69023,7.40971 -2.67571,2.40144 -5.83236,4.54711 -9.46992,6.43318 -3.63565,1.88844 -7.73629,3.39826 -12.29871,4.52946 -4.56178,1.13113 -9.55474,1.69669 -14.97379,1.69669 z m -3.39582,-91.39479 0,0 c -3.22935,0 -6.05687,0.56574 -8.49403,1.69726 -2.43653,1.13343 -4.52671,2.71271 -6.27629,4.73592 -1.75149,2.02321 -3.17386,4.44251 -4.27284,7.25536 -1.09644,2.81539 -1.88864,5.93504 -2.36701,9.36595 l 41.37437,0 0,-2.367 c -0.067,-2.94999 -0.4956,-5.6933 -1.28524,-8.23444 -0.79028,-2.53666 -1.99068,-4.734 -3.60312,-6.58754 -1.61181,-1.85164 -3.6701,-3.29378 -6.17359,-4.32324 -2.50669,-1.02882 -5.47389,-1.54227 -8.90225,-1.54227"
         style="fill:#ffffff;fill-opacity:1;fill-rule:nonzero;stroke:none"
         id="letra-e"
         inkscape:connector-curvature="0" />
      <path
         d="m 348.46375,502.86176 0,0 -5.06759,-11.52628 c -0.99183,-2.25985 -1.02691,-4.8654 -0.0874,-7.14821 0.93889,-2.27706 2.79053,-4.10317 5.08291,-5.00763 0.98609,-0.38907 2.12015,-0.92422 3.42834,-1.53017 1.08113,-0.50069 2.27197,-1.04859 3.56486,-1.622 l 0,-45.8966 -29.84807,0 0,158.09084 29.84807,0 0,-69.61374 -6.92113,-15.74621"
         style="fill:#ffffff;fill-opacity:1;fill-rule:nonzero;stroke:none"
         id="letra-l"
         inkscape:connector-curvature="0" />
      <path
         d="m 486.02661,556.57438 c -0.92485,2.02322 -2.21263,3.75429 -3.85697,5.19707 -1.64689,1.44023 -3.60568,2.55644 -5.86743,3.34353 -2.26495,0.79028 -4.76908,1.18383 -7.51496,1.18383 -4.45974,0 -8.06222,-0.87448 -10.80554,-2.62406 -2.74587,-1.74894 -4.88836,-4.09808 -6.43319,-7.05062 -1.54484,-2.94997 -2.59088,-6.38089 -3.13942,-10.29271 -0.55045,-3.90929 -0.82217,-7.9927 -0.82217,-12.24578 l 0,-2.883 c 0,-4.18291 0.27172,-8.23444 0.82217,-12.14372 0.54854,-3.91374 1.59458,-7.36252 3.13942,-10.34438 1.54483,-2.98507 3.68732,-5.36737 6.43319,-7.15331 2.74332,-1.78402 6.27628,-2.67634 10.59888,-2.67634 3.02013,0 5.69585,0.51345 8.03033,1.54227 2.32936,1.02946 4.28815,2.4193 5.86488,4.16824 1.57991,1.74959 2.79563,3.80978 3.65542,6.17678 0.85725,2.36701 1.31777,4.88836 1.38984,7.56408 l 27.89311,0 c -0.072,-6.65453 -1.23613,-12.6744 -3.50043,-18.06091 -2.26495,-5.3865 -5.42159,-9.96615 -9.47055,-13.74085 -4.04898,-3.7747 -8.90225,-6.67237 -14.56303,-8.69813 -5.66077,-2.02321 -11.92175,-3.03418 -18.78357,-3.03418 -8.57631,0 -16.07277,1.45745 -22.48874,4.37235 -1.81399,0.82473 -3.52084,1.75914 -5.16262,2.758 2.29748,2.64381 3.07946,6.44594 1.65198,9.87685 l -4.60962,11.09448 0.003,0 -19.19178,46.20594 c 0.47328,2.40145 1.02117,4.76846 1.73364,7.05062 2.12526,6.82928 5.31443,12.76433 9.57261,17.80704 4.25307,5.04271 9.60514,9.02215 16.05554,11.93961 6.44786,2.91509 13.99727,4.3726 22.6431,4.3726 6.44786,0 12.47029,-0.99661 18.0609,-2.98486 5.5938,-1.98794 10.44709,-4.78612 14.56558,-8.38668 4.11593,-3.60505 7.37526,-7.89064 9.7767,-12.86639 2.4021,-4.97255 3.63567,-10.41199 3.70774,-16.31196 l -27.89311,0 c -0.072,2.53922 -0.56767,4.82139 -1.49445,6.84459"
         style="fill:#ffffff;fill-opacity:1;fill-rule:nonzero;stroke:none"
         id="letra-c"
         inkscape:connector-curvature="0" />
      <path
         inkscape:connector-curvature="0"
         d="m 436.58939,489.10114 c -1.50826,3.63097 -3.01652,7.26196 -4.52479,10.89293 -16.1037,-6.33397 -33.78305,-10.26231 -51.06178,-7.04551 -8.91057,1.4415 -17.62082,3.96331 -26.07143,7.10994 -1.70216,-4.14441 -3.82451,-8.1528 -5.25752,-12.38433 2.6596,-4.04485 8.96797,-4.80896 13.27525,-7.13965 20.52523,-7.57941 44.18585,-7.62925 64.20193,1.60338 2.74088,2.20968 10.0909,2.42788 9.43834,6.96324 z m -43.13349,98.59985 c -11.84394,-26.94518 -23.68787,-53.89036 -35.53181,-80.83554 16.2568,-6.00708 34.12338,-9.98675 51.36004,-6.02855 6.80903,1.39426 13.46151,3.49009 19.93255,6.01389 -11.19037,26.94259 -22.38073,53.88516 -33.5711,80.82775 -0.33741,0.95922 -1.83118,0.97111 -2.18968,0.0224"
         style="fill:#ffffff;fill-opacity:1;fill-rule:nonzero;stroke:none"
         id="isotipo" />
      <g
         id="text4442"
         style="font-style:normal;font-weight:normal;font-size:59.96855927px;line-height:125%;font-family:sans-serif;letter-spacing:0px;word-spacing:0px;fill:#ffffff;fill-opacity:1;stroke:none;stroke-width:1px;stroke-linecap:butt;stroke-linejoin:miter;stroke-opacity:1"
         transform="scale(0.95383256,1.048402)">
        <path
           id="path4479"
           style="font-style:normal;font-variant:normal;font-weight:normal;font-stretch:normal;font-family:Roboto;-inkscape-font-specification:Roboto;fill:#ffffff;fill-opacity:1"
           d="m 519.44637,610.98768 q 0,-2.19611 -1.66905,-3.39665 -1.63976,-1.22983 -5.76846,-2.10827 -4.09941,-0.87845 -6.52978,-2.10827 -2.40108,-1.22983 -3.57234,-2.92816 -1.14198,-1.69832 -1.14198,-4.04085 0,-3.89444 3.27953,-6.58834 3.30881,-2.6939 8.43308,-2.6939 5.3878,0 8.72589,2.78175 3.36738,2.78174 3.36738,7.11541 l -5.44637,0 q 0,-2.2254 -1.9033,-3.83588 -1.87401,-1.61049 -4.7436,-1.61049 -2.95744,0 -4.62648,1.28839 -1.66905,1.28839 -1.66905,3.36737 0,1.96187 1.55192,2.95744 1.55192,0.99557 5.59277,1.9033 4.07013,0.90772 6.58834,2.16683 2.51822,1.25911 3.71876,3.04528 1.22982,1.75689 1.22982,4.30438 0,4.24582 -3.39665,6.8226 -3.39666,2.54749 -8.81374,2.54749 -3.8066,0 -6.73475,-1.34695 -2.92816,-1.34695 -4.5972,-3.74804 -1.63977,-2.43036 -1.63977,-5.24139 l 5.41708,0 q 0.14641,2.72318 2.16684,4.33367 2.0497,1.5812 5.3878,1.5812 3.07456,0 4.91929,-1.22982 1.87402,-1.25911 1.87402,-3.3381 z"
           inkscape:connector-curvature="0" />
        <path
           id="path4481"
           style="font-style:normal;font-variant:normal;font-weight:normal;font-stretch:normal;font-family:Roboto;-inkscape-font-specification:Roboto;fill:#ffffff;fill-opacity:1"
           d="m 530.4855,603.25736 q 0,-4.65576 1.81546,-8.37452 1.84473,-3.71875 5.09498,-5.73917 3.27953,-2.02043 7.46679,-2.02043 6.47122,0 10.4535,4.48007 4.01157,4.48008 4.01157,11.91758 l 0,0.38066 q 0,4.62648 -1.78617,8.31596 -1.75689,3.66019 -5.0657,5.70989 -3.27953,2.04971 -7.55464,2.04971 -6.44193,0 -10.4535,-4.48007 -3.98229,-4.48008 -3.98229,-11.85902 l 0,-0.38066 z m 5.44637,0.64419 q 0,5.27068 2.43036,8.46236 2.45965,3.19169 6.55906,3.19169 4.1287,0 6.55907,-3.22097 2.43036,-3.25025 2.43036,-9.07727 0,-5.21211 -2.48893,-8.43308 -2.45965,-3.25025 -6.55906,-3.25025 -4.01157,0 -6.47122,3.19169 -2.45964,3.19168 -2.45964,9.13583 z"
           inkscape:connector-curvature="0" />
        <path
           id="path4483"
           style="font-style:normal;font-variant:normal;font-weight:normal;font-stretch:normal;font-family:Roboto;-inkscape-font-specification:Roboto;fill:#ffffff;fill-opacity:1"
           d="m 578.82929,615.5556 q 2.89887,0 5.06571,-1.75689 2.16683,-1.75689 2.40108,-4.39223 l 5.12427,0 q -0.14641,2.72318 -1.87402,5.18283 -1.72761,2.45965 -4.62648,3.92372 -2.86959,1.46408 -6.09056,1.46408 -6.47121,0 -10.30709,-4.30438 -3.8066,-4.33367 -3.8066,-11.82974 l 0,-0.90773 q 0,-4.62648 1.69833,-8.2281 1.69832,-3.60163 4.86073,-5.59278 3.19169,-1.99114 7.52535,-1.99114 5.32924,0 8.84302,3.19169 3.54306,3.19168 3.77732,8.28667 l -5.12427,0 q -0.23425,-3.07456 -2.34252,-5.03642 -2.07899,-1.99115 -5.15355,-1.99115 -4.12869,0 -6.41265,2.98672 -2.25468,2.95743 -2.25468,8.57948 l 0,1.02486 q 0,5.47564 2.25468,8.43308 2.25467,2.95743 6.44193,2.95743 z"
           inkscape:connector-curvature="0" />
        <path
           id="path4485"
           style="font-style:normal;font-variant:normal;font-weight:normal;font-stretch:normal;font-family:Roboto;-inkscape-font-specification:Roboto;fill:#ffffff;fill-opacity:1"
           d="m 603.3965,619.39148 -5.41708,0 0,-31.68261 5.41708,0 0,31.68261 z m -5.85631,-40.08641 q 0,-1.31766 0.7906,-2.22539 0.81989,-0.90773 2.40109,-0.90773 1.5812,0 2.40108,0.90773 0.81989,0.90773 0.81989,2.22539 0,1.31767 -0.81989,2.19612 -0.81988,0.87844 -2.40108,0.87844 -1.5812,0 -2.40109,-0.87844 -0.7906,-0.87845 -0.7906,-2.19612 z"
           inkscape:connector-curvature="0" />
        <path
           id="path4487"
           style="font-style:normal;font-variant:normal;font-weight:normal;font-stretch:normal;font-family:Roboto;-inkscape-font-specification:Roboto;fill:#ffffff;fill-opacity:1"
           d="m 631.59461,619.39148 q -0.46851,-0.93701 -0.76132,-3.33809 -3.77732,3.92372 -9.01871,3.92372 -4.68505,0 -7.70104,-2.63534 -2.98672,-2.66462 -2.98672,-6.73475 0,-4.94857 3.74804,-7.67176 3.77731,-2.75246 10.59991,-2.75246 l 5.27067,0 0,-2.48893 q 0,-2.84031 -1.69833,-4.50935 -1.69833,-1.69833 -5.00714,-1.69833 -2.89887,0 -4.86073,1.46407 -1.96186,1.46408 -1.96186,3.54307 l -5.44637,0 q 0,-2.3718 1.66905,-4.56792 1.69833,-2.22539 4.56792,-3.51378 2.89887,-1.28839 6.35409,-1.28839 5.47564,0 8.57949,2.75246 3.10384,2.72319 3.22096,7.52536 l 0,14.58219 q 0,4.36295 1.1127,6.93973 l 0,0.4685 -5.68061,0 z m -8.98943,-4.1287 q 2.54749,0 4.83145,-1.31766 2.28396,-1.31767 3.30881,-3.42594 l 0,-6.5005 -4.24582,0 q -9.95572,0 -9.95572,5.82702 0,2.5475 1.69833,3.98229 1.69833,1.43479 4.36295,1.43479 z"
           inkscape:connector-curvature="0" />
        <path
           id="path4489"
           style="font-style:normal;font-variant:normal;font-weight:normal;font-stretch:normal;font-family:Roboto;-inkscape-font-specification:Roboto;fill:#ffffff;fill-opacity:1"
           d="m 650.59831,619.39148 -5.41708,0 0,-44.97642 5.41708,0 0,44.97642 z"
           inkscape:connector-curvature="0" />
      </g>
    </g>
  </g>
</svg>
