<svg xmlns="http://www.w3.org/2000/svg" width="42.667" height="42.667" viewBox="0 0 40 40"><g transform="matrix(3.06235 0 0 3.25421 -164.708 -563.428)"><circle cx="60.316" cy="179.284" r="6.196" fill="#515151"/><path d="M60.316 185.48a6.196 6.196 0 0 1 0-12.392z" fill="#222"/></g><g transform="translate(-174.706 -558.747) scale(3.2281)" fill="#1a1a1a"><circle r="6.196" cy="179.284" cx="60.316"/><path d="M60.316 185.48a6.196 6.196 0 0 1 0-12.392z"/></g><g fill="#fff"><path d="M29.103 10.384H15.496a2.246 2.246 0 0 0-2.246 2.246v2.114h1.95v-1.708c0-.472.381-.854.854-.854h12.492c.472 0 .854.382.854.854v8.035a.854.854 0 0 1-.854.854h-5.821v2.803s-.008 3.724-.01 3.756c-.015.394-.13.76-.315 1.082h4.044a.854.854 0 0 0 .855-.854v-1.093a.854.854 0 0 0-.855-.854H24.36v-1.516h4.744a2.246 2.246 0 0 0 2.246-2.246V12.63a2.246 2.246 0 0 0-2.246-2.246zm-1.104 13.77a.701.701 0 1 1 0-1.401.701.701 0 0 1 0 1.402z"/><path d="M20.697 19.376l-.103-.187-.7.702v6.36H15.93v1.365a.684.684 0 0 1 .395-.137.7.7 0 1 1 0 1.402.684.684 0 0 1-.395-.138v.2c0 .238-.049.463-.128.673h4.55c.677 0 1.227-.55 1.227-1.227v-8.506h-.024a.979.979 0 0 1-.858-.507zm-7.94-1.56h4.89l.786-.788-.191-.106a.977.977 0 0 1-.498-.958c.003-.026.014-.049.02-.074h-5.465c-.677 0-1.227.55-1.227 1.228v1.718h1.685zm1.261 2.049H9.416a.765.765 0 0 0-.765.765v8.195c0 .424.342.766.765.766h4.602a.765.765 0 0 0 .766-.766V20.63a.765.765 0 0 0-.766-.765zm-2.3 9.29a.59.59 0 1 1 0-1.18.59.59 0 0 1 0 1.18zm1.822-2.39H9.896v-5.377h3.644v5.376z"/><path d="M22.89 14.733a.21.21 0 0 0-.153-.064.212.212 0 0 0-.061.008l-4.017 1.182a.216.216 0 1 0-.044.396l1.077.595-2.858 2.86a.764.764 0 1 0 1.08 1.08l2.859-2.86.594 1.077c.038.069.11.112.188.112l.024-.001a.215.215 0 0 0 .184-.153l1.18-4.019a.214.214 0 0 0-.054-.213z"/></g></svg>