<svg xmlns="http://www.w3.org/2000/svg" width="42.667" height="42.667" viewBox="0 0 40 40"><g transform="translate(-174.706 -558.747) scale(3.2281)" fill="#1a1a1a"><circle r="6.196" cy="179.284" cx="60.316"/><path d="M60.316 185.48a6.196 6.196 0 0 1 0-12.392z"/></g><g transform="matrix(.53981 0 0 .57363 7.273 6.475)" fill="#fff"><path d="M17.207 26.989a2.913 2.913 0 0 0 2.769 2.01h20.487a2.913 2.913 0 0 0 2.807-2.135l3.778-13.629a2.914 2.914 0 0 0-2.805-3.691H13.974l-2.735-3.809a7.652 7.652 0 0 0-6.213-3.187H2.158C.968 2.548 0 3.506 0 4.698s.968 2.149 2.158 2.149h2.404c1.362 0 2.641.66 3.43 1.771l3.854 5.428v16.957a4.99 4.99 0 0 0 4.989 4.99h23.083a2.15 2.15 0 1 0 0-4.298H17.407a1.188 1.188 0 0 1-1.188-1.188V23.96z"/><circle r="3.247" cy="41.359" cx="16.463"/><circle r="3.247" cy="41.359" cx="37.484"/></g></svg>