<svg xmlns="http://www.w3.org/2000/svg" width="42.667" height="42.667" viewBox="0 0 40 40"><g transform="matrix(3.06235 0 0 3.25421 -164.708 -563.428)"><circle cx="60.316" cy="179.284" r="6.196" fill="#515151"/><path d="M60.316 185.48a6.196 6.196 0 0 1 0-12.392z" fill="#222"/></g><g transform="translate(-174.706 -558.747) scale(3.2281)" fill="#1a1a1a"><circle r="6.196" cy="179.284" cx="60.316"/><path d="M60.316 185.48a6.196 6.196 0 0 1 0-12.392z"/></g><path d="M17.083 12.708c5.638 0 10.209 4.57 10.209 10.209h-2.188a7.968 7.968 0 0 0-2.349-5.672 7.969 7.969 0 0 0-5.672-2.35zm0-4.375c8.055 0 14.584 6.53 14.584 14.584h-2.188a12.357 12.357 0 0 0-3.63-8.765 12.358 12.358 0 0 0-8.766-3.631zm4.339 10.245a5.086 5.086 0 0 1 1.494 3.61c-1.458 2.188-1.458 5.104-1.458 5.104-5.833 0-10.208 4.375-10.208 4.375l-.32-.319-.526-.527 6.462-6.462a1.458 1.458 0 1 0-1.225-1.225L9.18 29.596l-.846-.846s4.375-4.375 4.375-10.208c0 0 2.917 0 5.104-1.459 1.307 0 2.613.499 3.61 1.495z" fill="#fff"/></svg>