<svg xmlns="http://www.w3.org/2000/svg" width="42.667" height="42.667" viewBox="0 0 40 40"><g transform="translate(-174.706 -558.747) scale(3.2281)" fill="#1a1a1a"><circle r="6.196" cy="179.284" cx="60.316"/><path d="M60.316 185.48a6.196 6.196 0 0 1 0-12.392z"/></g><path d="M13.809 19.633l4.006-1.7v.875l-2.847 1.198 2.847 1.207v.873l-4.006-1.698v-.377zm4.837 3.362h.91l1.799-5.972h-.91zm3.54-4.187l2.846 1.198-2.846 1.207v.873l4.006-1.698v-.755l-4.006-1.7zm10.312 8.153v1.266H7.502V26.96h1.66V11.773h21.675v15.188zm-21.437-1.898H28.94V13.672H11.06z" fill="#fff"/></svg>