<svg xmlns="http://www.w3.org/2000/svg" width="42.667" height="42.667" viewBox="0 0 40 40"><g transform="translate(-174.706 -558.747) scale(3.2281)" fill="#1a1a1a"><circle r="6.196" cy="179.284" cx="60.316"/><path d="M60.316 185.48a6.196 6.196 0 0 1 0-12.392z"/></g><path d="M33.784 12.326H6.216a.885.885 0 0 0-.885.885V26.79c0 .489.396.885.885.885h27.568a.885.885 0 0 0 .885-.885V13.21a.885.885 0 0 0-.885-.885zM32.9 23.113a2.071 2.071 0 0 0-2.67 2.79H9.718a2.071 2.071 0 0 0-2.617-2.81v-6.321a2.066 2.066 0 0 0 2.675-2.676h20.395a2.071 2.071 0 0 0 2.728 2.656zm-17.162-6.19h1.946a3.944 3.944 0 0 0-.243 6.155h-1.703v1.947h8.526v-1.947h-1.638a3.946 3.946 0 0 0-.243-6.155h1.881v-1.947h-8.526zm2.885 2.01a1.464 1.464 0 1 1 2.26 1.227 2 2 0 0 1 1.31 1.877h-4.004a2 2 0 0 1 1.185-1.826 1.463 1.463 0 0 1-.75-1.278z" fill="#fff"/></svg>