<svg xmlns="http://www.w3.org/2000/svg" width="42.667" height="42.667" viewBox="0 0 40 40"><g transform="translate(-174.706 -558.747) scale(3.2281)" fill="#1a1a1a"><circle r="6.196" cy="179.284" cx="60.316"/><path d="M60.316 185.48a6.196 6.196 0 0 1 0-12.392z"/></g><path d="M7.82 29.531v-2.65h.73v4.568h4.507v.731H7.82zm19.062 2.284v-.366h4.568v-4.567h.73v5.298h-5.299zm-8.864-1.49a.51.51 0 0 1-.15-.32c0-.347 1.669-1.752 2.337-1.965.33-.107.8-.052 1.223.142.34.156 1.602 1 1.906 1.277.285.257.08.773-.306.773-.1 0-.377-.15-.727-.394-1.482-1.035-1.654-1.085-2.272-.662-.202.138-.62.487-.928.775-.629.588-.808.65-1.083.375zm-1.876-1.728c-.148-.164-.13-.51.036-.664.243-.225 2.776-2.011 3.303-2.33.8-.483 1.024-.565 1.456-.536.461.03.849.212 2.148 1.001.531.323 1.184.7 1.451.84.57.297.703.467.585.752a.528.528 0 0 1-.255.26c-.257.106-.533-.016-1.844-.81-1.256-.762-1.977-1.142-2.166-1.142-.272 0-1.068.503-3.054 1.928-.937.673-1.169.813-1.346.813-.129 0-.253-.045-.314-.111zm-1.638-2.08c-.122-.096-.168-.185-.168-.33 0-.245.135-.376.57-.553.426-.173 1.1-.578 2.78-1.674 2.12-1.383 2.678-1.704 3.183-1.831.544-.137 1.232.126 2.353.899 1.62 1.117 2.14 1.454 2.503 1.617.506.229.609.323.609.561a.473.473 0 0 1-.45.458c-.378 0-1.18-.472-3.235-1.9-.64-.446-1.182-.725-1.419-.732-.35-.008-.706.198-4.023 2.345-1.093.708-1.992 1.187-2.323 1.24a.42.42 0 0 1-.38-.1zm-.958-2.15c-.24-.12-.343-.354-.253-.573.063-.15.196-.237.768-.502 1.792-.829 5.334-2.958 6.881-4.136.762-.58 1.877-1.68 2.22-2.19.722-1.074.852-2.1.35-2.768-.264-.352-.859-.654-1.283-.652-.361.002-.848.185-1.287.486-.166.114-.81.702-1.43 1.306-1.95 1.898-3.192 2.808-4.871 3.565-.756.34-1.555.61-1.808.61a.435.435 0 0 1-.34-.72c.06-.07.37-.211.705-.321.774-.253 2.124-.915 2.782-1.364 1.028-.702 2.2-1.713 3.35-2.889 1.047-1.071 1.834-1.521 2.755-1.574.451-.027.59-.008.914.107 1.053.382 1.641 1.135 1.728 2.212.148 1.838-1.365 3.77-4.636 5.921-1.821 1.198-4.039 2.483-5.41 3.134-.904.43-.947.443-1.135.348zm12.319-1.438c-1.155-.456-2.18-1.344-2.687-2.327-.233-.451-.242-.62-.044-.818.286-.286.565-.175.818.325.436.864 1.262 1.559 2.399 2.018.194.078.381.197.417.262.143.268-.093.721-.372.715-.05-.001-.29-.08-.531-.175zm-13.051-1.041c-.131-.13-.16-.423-.062-.608.033-.062.19-.16.35-.218 1.83-.667 3.778-1.69 5.254-2.76 1.269-.92 2.217-1.821 3.128-2.976.325-.413.364-.442.585-.442.183 0 .265.034.363.16.155.198.158.306.014.54-.568.927-2.285 2.589-3.725 3.606-1.272.9-3.159 1.91-4.698 2.516-.85.335-1.03.362-1.21.182zm13.715-1.553c-.745-.373-1.222-.815-1.503-1.392-.117-.24-.23-.55-.252-.691-.034-.23-.02-.276.147-.442.325-.325.681-.198.77.275.119.634.52 1.082 1.302 1.459.257.123.502.268.544.321.108.139.094.405-.03.552-.2.235-.374.22-.978-.083zm.322-3.27c-.237-.186-.46-.718-.752-1.791-.49-1.802-.978-2.842-1.823-3.88-.966-1.188-2.374-1.877-3.85-1.885-1.167-.008-2.366.42-3.475 1.238-.684.505-1.658 1.502-2.383 2.438-.858 1.109-1.328 1.516-1.747 1.516a.373.373 0 0 1-.307-.16c-.24-.306-.15-.51.387-.875.123-.084.493-.494.822-.913.848-1.08 1.44-1.733 2.013-2.224 2.018-1.728 4.01-2.304 6.113-1.768.703.179 1.129.368 1.771.787.945.616 1.81 1.642 2.436 2.893.402.801.606 1.352.917 2.481.313 1.135.357 1.258.52 1.487.162.228.151.46-.03.64-.185.185-.391.19-.613.02zm-14.12-.114a.372.372 0 0 1-.161-.309c0-.28.094-.397.41-.516.34-.127 1.519-.757 1.882-1.005.409-.279 1.174-1.03 1.803-1.769 1.384-1.624 2.838-2.542 4.382-2.763.254-.034.303-.027.442.114.196.197.204.462.018.628-.079.07-.343.165-.623.224-1.217.255-2.327 1.034-3.675 2.581-1.037 1.19-1.536 1.61-2.658 2.238-.752.421-1.376.703-1.557.703-.057 0-.175-.057-.263-.127zM7.82 10.469v-2.65h5.299v.732H8.55v4.567h-.73zm23.63.365V8.551h-4.507V7.82h5.237v5.299h-.73z" fill="#fff" stroke="#fff" stroke-width=".061"/></svg>