<svg xmlns="http://www.w3.org/2000/svg" width="420.049" height="426.381" viewBox="0 0 393.796 399.732"><path d="M191.48 378.761c.334-5.046.61-10.919.612-13.051v-3.877l15.29-.517c16.581-.56 27.294-2.406 42.8-7.374 4.89-1.566 9.068-2.67 9.285-2.452.217.217 2.47 5.526 5.006 11.797l4.611 11.403-4.856 1.812c-18.562 6.928-43.878 11.434-64.242 11.434h-9.119l.608-9.175zm-38.434 3.154c-34.95-9.003-64.972-26.68-89.874-52.917C-.574 261.836-5.791 158.586 50.816 84.47c6.098-7.984 21.916-24.115 30.245-30.844 43.593-35.217 99.943-49.04 155.891-38.244 21.736 4.195 47.876 14.992 66.415 27.434l9.175 6.157v-7.754c0-6.518.343-8.263 2.152-10.951 4.052-6.022 13.262-6.628 17.566-1.156 1.833 2.33 1.925 3.68 1.925 28.29v25.845l-3.2 3.2-3.2 3.199h-24.178c-26.868 0-28.22-.271-31.041-6.218-1.769-3.727-1.783-5.223-.09-9.276 1.857-4.443 5.65-6.149 13.672-6.149 3.648 0 6.63-.317 6.625-.706-.013-1.15-10.976-7.883-21.151-12.99-55.79-28.001-125.772-20.22-174.094 19.358-8.482 6.947-22.274 21.283-28.253 29.368-20.959 28.342-31.614 60.952-31.6 96.707.018 45.708 17.07 85.46 50.338 117.343 21.093 20.216 44.521 33.104 73.031 40.176l11.763 2.918-1.89 12.233c-1.667 10.788-2.111 12.257-3.764 12.445-1.03.116-7.379-1.206-14.107-2.94zm122.359-24.106c-3.02-6.219-5.32-11.44-5.113-11.603.207-.162 3.34-1.915 6.963-3.894 10-5.462 21.755-13.783 30.013-21.245l7.43-6.713 8.998 8.999 8.998 8.998-2.313 2.517c-3.816 4.153-18.327 16.007-25.609 20.92-6.136 4.14-22.284 13.328-23.422 13.328-.25 0-2.926-5.088-5.945-11.307zm-89.425-14.69c-49.65-5.393-92.716-35.01-114.762-78.922-5.96-11.87-10.809-26.149-13.261-39.05-2.57-13.518-2.423-38.573.307-52.247 10.977-54.979 50.679-97.615 104.662-112.397 8.83-2.418 26.112-4.733 35.335-4.733h7.01v133.62h138.607l-.535 14.35c-.845 22.671-4.944 39.464-14.297 58.575-20.186 41.247-57.325 69.897-101.883 78.594-9.881 1.928-32.565 3.145-41.183 2.21zm39.992-13.041c9.428-2.083 22.089-6.35 30.84-10.393 24.672-11.399 49.167-35.485 61.997-60.962 7.393-14.682 13.494-38.444 13.494-52.562v-6.42H193.979V67.061h-3.598c-6.065 0-20.864 2.864-30.278 5.86-21.248 6.763-38.132 17.09-54.162 33.129-19.234 19.244-31.002 41.071-36.815 68.283-2.414 11.3-2.414 39.512 0 50.813 7.029 32.903 24.422 60.56 50.515 80.32 17.877 13.538 36.528 21.6 59.282 25.623 9.59 1.695 37.51 1.095 47.049-1.012zm107.505-16.968c-5.84-4.938-9.394-8.584-9.006-9.244.353-.599 1.984-2.782 3.625-4.853 4.568-5.762 10.446-14.769 14.424-22.1l3.594-6.622 11.463 5.641 11.463 5.642-3.258 6.47c-3.73 7.405-14.854 24.295-19.512 29.623l-3.146 3.598-9.647-8.155zm27.525-47.265c-5.693-2.382-10.44-4.382-10.55-4.444-.26-.146 6.374-20.62 6.831-21.082.473-.48 24.891 5.623 24.891 6.22 0 .26-1.743 5.715-3.874 12.123-2.892 8.696-4.264 11.634-5.41 11.583-.846-.037-6.195-2.017-11.888-4.4z" fill="#545a5f"/></svg>