<svg xmlns="http://www.w3.org/2000/svg" width="420.049" height="426.381" viewBox="0 0 393.796 399.732"><path d="M157.506 248.212c21.318-11.185 35.492-18.08 37.17-18.08 1.677 0 15.922 6.925 37.329 18.147 19.038 9.98 34.744 18.01 34.9 17.842.158-.167-.917-7.37-2.387-16.005l-6.538-38.39c-3.439-20.184-3.725-23.023-2.598-25.722.735-1.758 12.91-14.414 28.95-30.094 15.226-14.883 27.598-27.14 27.494-27.238-.104-.098-17.103-2.623-37.776-5.612-20.673-2.988-39.038-6.102-40.81-6.921-2.963-1.367-4.655-4.387-20.872-37.233L194.719 43.16l-17.667 35.677c-16.376 33.068-17.911 35.793-20.998 37.257-1.983.94-18.334 3.75-40.406 6.942-20.391 2.95-37.24 5.527-37.44 5.728-.201.2 9.631 10.121 21.85 22.045 33.412 32.608 33.825 33.041 34.526 36.233.413 1.877-1.574 15.876-5.593 39.415-3.428 20.077-6.409 37.253-6.624 38.17-.216.915-.15 1.664.145 1.664s16.042-8.136 34.994-18.08zm-56.418 49.54c-1.708-1.072-3.813-3.433-4.679-5.248-1.536-3.22-1.374-4.46 6.604-50.678l8.179-47.378-14.919-14.733c-8.205-8.103-23.415-23.09-33.8-33.305-10.385-10.215-19.485-19.417-20.221-20.45-3.024-4.238-.711-12.623 4.18-15.152 1.913-.99 91.31-14.848 95.778-14.848.337 0 10.313-19.542 22.168-43.427 17.903-36.068 22.047-43.726 24.458-45.196 3.776-2.303 7.835-2.243 11.798.173 2.788 1.7 5.845 7.344 24.477 45.196 11.71 23.79 21.624 43.253 22.03 43.253 4.559-.006 93.536 13.775 95.503 14.792 1.462.756 3.327 2.33 4.144 3.495 1.71 2.443 1.948 8.203.471 11.445-.557 1.223-16.187 16.96-34.733 34.97-21.027 20.42-33.719 33.426-33.719 34.554 0 .996 3.426 21.794 7.613 46.22 4.187 24.424 7.613 45.796 7.613 47.493 0 4.525-5.01 9.691-9.992 10.302-3.505.43-7.12-1.278-45.676-21.576-23.028-12.124-42.334-22.229-42.903-22.454-.569-.226-19.839 9.505-42.821 21.624-23.645 12.468-43.233 22.217-45.118 22.454-2.28.287-4.31-.194-6.435-1.527zm202.995 77.36c-4.598-5.278-6.52.397 33.253-98.219l36.132-89.587 3.962-1.998c2.39-1.205 5.19-1.75 7.058-1.376 4.286.86 8.305 5.096 9.049 9.539.603 3.603.219 4.604-35.824 93.33l-36.433 89.688-3.83 1.628c-4.765 2.026-10.013.846-13.367-3.004zm-51.137 9.527c-1.08-.966-2.53-3.41-3.225-5.428-1.233-3.588-1.116-4.217 5.13-27.525 7.023-26.212 7.942-28.197 13.826-29.836 1.691-.471 4.81-.392 6.932.176 3.16.847 4.27 1.749 6.144 4.996l2.288 3.963-6.81 25.414c-5.605 20.919-7.184 25.825-8.927 27.737-3.78 4.147-11.023 4.385-15.358.503zm-63.688 8.128c-5.743-3.121-5.608-1.9-5.608-50.974V296.94l3.235-3.235c2.64-2.64 3.962-3.236 7.184-3.236 5.266 0 8.971 2.063 10.863 6.05 1.367 2.88 1.555 8.376 1.555 45.272 0 46.414-.059 46.918-5.89 50.473-3.658 2.23-7.822 2.415-11.34.503zm-61.72-5.49c-1.166-.144-3.576-1.278-5.354-2.52l-3.234-2.257-6.643-24.792c-7.302-27.25-7.456-28.967-2.977-33.05 4.745-4.323 12.325-4.313 16.277.024 1.736 1.905 3.295 6.72 8.679 26.814 5.743 21.434 6.455 24.875 5.705 27.566-1.428 5.127-7.107 8.873-12.453 8.215zm-50.48-7.214c-1.133-.033-3.469-.757-5.192-1.609l-3.132-1.548-34.567-90.36C-.03 197.153-.393 196.145.284 192.555c.835-4.428 4.94-8.58 9.242-9.352 1.875-.336 4.664.267 7.029 1.52l3.92 2.078 34.289 90.31c37.846 99.68 35.999 93.802 31.087 98.92-2.717 2.83-5.544 4.127-8.793 4.031z" fill="#545a5f"/></svg>