<svg xmlns="http://www.w3.org/2000/svg" width="420.049" height="426.381" viewBox="0 0 393.796 399.732"><path d="M257.817 369.564c-16.908-2.637-34.524-9.878-49.147-20.2l-5.89-4.158h-90.027c-99.31 0-93.712.338-100.383-6.056-1.764-1.692-4.144-4.806-5.287-6.92l-2.078-3.846V46.734l2.078-3.845c1.143-2.115 3.523-5.229 5.287-6.92 6.781-6.5-4.27-6.057 151.014-6.057h140.658l5.21 3.124c3.51 2.105 6.163 4.668 8.129 7.854l2.918 4.73.27 53.43.271 53.428 7.9 4.074c22.093 11.392 41.198 32.248 51.142 55.83 13.858 32.859 11.425 71.282-6.432 101.583-11.766 19.966-27.225 34.275-48.345 44.747-17.28 8.568-26.603 10.733-47.582 11.049-9.253.139-18.12.05-19.706-.197zm22.82-11.061c2.317-1.188 4.576-5.877 4.576-9.5 0-2.162-.935-3.963-3.269-6.296-5.945-5.945-14.595-3.709-17.025 4.401-.963 3.214-.863 4.158.73 6.918 3.237 5.605 9.268 7.407 14.988 4.477zM175.629 312.98c0-.278-1.459-3.414-3.242-6.97-8.258-16.47-11.74-33.902-10.88-54.458 1.028-24.57 8.405-45.076 22.937-63.752l4.675-6.008h-15.413v-34.606h33.644v8.17c0 4.495.378 8.172.84 8.172.462 0 4.147-1.988 8.189-4.418 15.053-9.047 30.92-14.107 49.226-15.697 10.126-.88 13.264-.827 23.212.387l3.125.382v-36.415l-129.05.244-129.05.244-.247 101.413c-.136 55.778-.042 101.954.21 102.615.36.946 15.48 1.202 71.14 1.202 38.876 0 70.684-.227 70.684-.505zM60.277 272.15v-17.302h33.644v34.605H60.277V272.15zm56.715 0v-17.302h33.644v34.605h-33.644V272.15zm-56.715-53.83v-17.303h33.644v34.605H60.277V218.32zm56.715 0v-17.303h33.644v34.605h-33.644V218.32zm0-53.831v-17.303h33.644v34.606h-33.644v-17.303zm165.871 111.616c7.659-3.479 13.585-13.517 12.214-20.69-.398-2.08 2.604-5.418 22.733-25.274L341 207.265l-.017-4.496c-.014-3.701-.465-4.849-2.55-6.489-2.81-2.21-6.122-2.54-9.306-.929-1.155.585-11.7 10.614-23.434 22.288-20.69 20.584-21.41 21.19-23.836 20.085-4.184-1.907-11.22-1.383-16.354 1.216-2.56 1.297-5.121 2.079-5.69 1.739-.57-.34-10.687-8.106-22.484-17.257-18.372-14.251-21.928-16.638-24.796-16.638-6.457 0-10.453 7.721-6.73 13.004.735 1.043 11.966 10.115 24.959 20.16 16.192 12.52 23.633 18.849 23.656 20.123.061 3.338 3.975 10.096 7.57 13.07 5.98 4.946 14.003 6.085 20.875 2.964zm-93.492-12.446c4.978-4.98 3.518-13.011-2.92-16.067-9.69-4.598-19.202 6.999-12.612 15.377 4.082 5.189 10.737 5.484 15.532.69zm183.348 2.227c3.038-1.571 5.736-5.86 5.736-9.116 0-5.095-5.479-10.574-10.574-10.574-5.094 0-10.574 5.48-10.574 10.574 0 3.16 2.653 7.503 5.54 9.07 3.402 1.845 6.366 1.86 9.872.046zm-90.652-95.175c3.1-3.101 3.349-3.757 2.905-7.69-.57-5.055-1.962-6.996-6.33-8.822-5.717-2.39-12.943 1.67-14.12 7.933-.674 3.59 2.057 9.115 5.31 10.74 4.503 2.25 8.536 1.538 12.235-2.16zm-65.104-103.79V52.982H108.34V80.86h108.623V66.921z" fill="#545a5f"/></svg>