<svg xmlns="http://www.w3.org/2000/svg" width="420.049" height="426.381" viewBox="0 0 393.796 399.732"><path d="M187.278 384.404c-18.96-4.368-31.484-23.003-31.416-41.982-.279-18.51-7.579-35.898-20.556-49.078-21.357-22.175-35.934-51.97-33.775-83.289-.48-48.264 41.188-91.58 89.258-93.612 45.14-4.36 90.211 28.805 98.415 73.518 2.573 27.486 2.198 57.273-14.66 80.65-13.163 21.261-37.04 37.954-37.392 65.214-.503 17.348-5.69 36.852-22.63 45.061-8.226 4.266-18.212 6.041-27.244 3.518zm165.818-80.183c-17.844-9.976-35.668-20.016-53.11-30.678-5.566-25.537 24.874-4.964 35.101 1.056 9.945 6.915 43.248 17.947 24.009 30.93l-2.956-.16-3.044-1.148zm-322.419-3.127c-5.835-17.158 23.472-21.234 33.795-30.657 8.77-6.782 36.022-19.623 29.85 1.32-16.145 11.763-34.471 20.697-52.054 30.28-3.71 1.938-8.918 3.456-11.59-.943zM8.08 210.088c-8.478-10.785 4.396-16.86 13.451-14.179h52.965c8.315 5.688 3.327 19.61-6.837 15.861-19.177-.249-38.42.664-57.543-.775l-2.036-.907zm309.886-.678c-7.857-10.942 5.82-15.865 14.372-13.608 17.609.278 35.427-1.567 52.865.967 14.306 20.215-22.11 14.501-33.883 15.001-10.48-.502-21.793 1.006-31.752-.757l-1.602-1.602zM58.023 133.636c-9.945-5.984-44.136-20.322-20.872-30.204a517.16 517.16 0 0 1 57.605 32.527c4.877 25.558-26.378 3.716-36.733-2.323zm242.64 13.293c-6.411-18.772 25.195-22.728 36.38-33.234 8.4-10.24 37.815-14.467 24.924 4.753-18.185 10.853-36.184 22.804-55.924 30.562-2.044.518-4.081-.588-5.38-2.081zm-45.799-44.988c-6.993-15.237 13.184-30.648 17.983-45.366 3.32-10.152 18.437-30.784 24.454-12.255-7.802 20.58-20.6 39.01-31.468 58.106-3.015 2.79-7.992 1.809-10.97-.485zm-125.588-.476c-11.567-18.774-23.512-37.625-32.613-57.702 11.13-23.439 24.603 12.149 31.107 22.223 4.353 9.88 28.411 40.715 1.506 35.48zm62.764-17.019c-4.99-4.396-1.163-12.445-2.36-18.413.139-16.443-.463-32.937.925-49.33 20.98-12.406 12.778 24.133 14.456 35.696-.512 10.04 1.02 20.928-.757 30.445-3.028 3.796-8.442 5.758-12.264 1.602z" fill="#545a5f"/></svg>