<svg xmlns="http://www.w3.org/2000/svg" width="426.663" height="234.511" viewBox="0 0 399.997 219.854"><g fill="#fff"><path d="M65.973 127.318c0-1.58-.306-3.02-.924-4.323-.62-1.303-1.786-2.524-3.5-3.655-1.715-1.13-4.05-2.213-7-3.242-2.95-1.028-6.759-2.023-11.423-2.985-5.698-1.235-10.96-2.777-15.799-4.63-4.838-1.853-9.024-4.152-12.557-6.898-3.533-2.743-6.296-5.935-8.287-9.57-1.988-3.637-2.985-7.858-2.985-12.661 0-4.665 1.014-9.09 3.04-13.276 2.023-4.185 4.938-7.876 8.748-11.065 3.807-3.192 8.473-5.713 13.995-7.564 5.523-1.853 11.752-2.778 18.681-2.778 7.206 0 13.689.89 19.454 2.676 5.763 1.784 10.651 4.27 14.665 7.462 4.017 3.19 7.104 6.981 9.266 11.371 2.16 4.393 3.242 9.197 3.242 14.412H64.842c0-4.256-1.373-7.772-4.116-10.552-2.745-2.778-7.033-4.168-12.866-4.168-5.008 0-8.887 1.133-11.63 3.395-2.744 2.265-4.117 5.148-4.117 8.649 0 1.644.36 3.104 1.082 4.372.72 1.27 1.886 2.435 3.498 3.498 1.612 1.067 3.74 2.044 6.38 2.935 2.642.892 5.883 1.717 9.728 2.47 6.037 1.168 11.628 2.608 16.775 4.322 5.148 1.717 9.59 3.93 13.33 6.64 3.74 2.711 6.672 6.005 8.8 9.882 2.126 3.877 3.192 8.558 3.192 14.047 0 4.94-1.099 9.488-3.294 13.636-2.198 4.154-5.337 7.736-9.418 10.756-4.083 3.023-9.007 5.39-14.77 7.104-5.765 1.714-12.213 2.57-19.352 2.57-7.82 0-14.717-1.095-20.687-3.29-5.967-2.198-10.995-5.081-15.076-8.646-4.084-3.568-7.153-7.582-9.211-12.044-2.061-4.46-3.09-8.955-3.09-13.482h28.202c.137 2.88.772 5.37 1.903 7.46 1.134 2.095 2.624 3.795 4.478 5.095 1.853 1.306 3.996 2.264 6.433 2.883 2.436.618 4.993.926 7.669.926 5.693 0 9.998-1.08 12.916-3.241 2.915-2.162 4.372-4.993 4.372-8.491m288.224 32.831c-8.648 0-16.385-1.405-23.211-4.22-6.827-2.814-12.625-6.653-17.393-11.527-4.77-4.87-8.407-10.584-10.909-17.136-2.506-6.55-3.757-13.57-3.757-21.049v-4.014c0-8.439 1.216-16.175 3.653-23.209 2.436-7.03 5.9-13.087 10.395-18.165 4.494-5.078 9.949-9.04 16.364-11.887 6.418-2.846 13.604-4.27 21.562-4.27 8.03 0 15.096 1.32 21.203 3.96 6.106 2.644 11.236 6.347 15.387 11.115 4.151 4.77 7.273 10.517 9.366 17.24 2.093 6.726 3.14 14.203 3.14 22.438v12.66h-70.915c.479 3.637 1.458 6.928 2.935 9.88 1.473 2.95 3.361 5.472 5.658 7.566 2.3 2.092 4.994 3.721 8.08 4.888 3.09 1.168 6.554 1.749 10.398 1.749 5.419 0 10.427-1.012 15.026-3.035 4.595-2.026 8.544-5.163 11.835-9.42l14.616 16.367c-1.787 2.538-4.014 5.007-6.69 7.41-2.676 2.4-5.833 4.547-9.47 6.433-3.636 1.888-7.737 3.398-12.3 4.53-4.56 1.13-9.554 1.696-14.973 1.696zm-3.396-91.395c-3.229 0-6.057.566-8.494 1.697a18.544 18.544 0 0 0-6.276 4.736c-1.751 2.023-3.174 4.443-4.273 7.256-1.096 2.815-1.888 5.935-2.367 9.366h41.375v-2.367c-.067-2.95-.496-5.694-1.286-8.235-.79-2.537-1.99-4.734-3.603-6.587-1.612-1.852-3.67-3.294-6.173-4.324-2.507-1.029-5.474-1.542-8.903-1.542M125.215 72.73l-5.068-11.525a9.182 9.182 0 0 1-.087-7.149 9.165 9.165 0 0 1 5.083-5.007c.986-.39 2.12-.924 3.428-1.53a229.299 229.299 0 0 1 3.565-1.622V0h-29.848v158.09h29.848V88.478l-6.921-15.746m137.563 53.712a15.288 15.288 0 0 1-3.857 5.197c-1.647 1.44-3.606 2.556-5.868 3.343-2.265.79-4.769 1.184-7.515 1.184-4.46 0-8.062-.875-10.805-2.624-2.746-1.75-4.889-4.098-6.433-7.05-1.545-2.95-2.591-6.382-3.14-10.293-.55-3.91-.822-7.993-.822-12.246v-2.883c0-4.183.272-8.235.822-12.144.549-3.914 1.595-7.362 3.14-10.344 1.544-2.985 3.687-5.368 6.433-7.154 2.743-1.784 6.276-2.676 10.599-2.676 3.02 0 5.696.513 8.03 1.542 2.33 1.03 4.288 2.42 5.865 4.169 1.58 1.75 2.796 3.81 3.655 6.176.858 2.367 1.318 4.889 1.39 7.564h27.893c-.072-6.654-1.236-12.674-3.5-18.06-2.265-5.387-5.422-9.967-9.47-13.741-4.05-3.775-8.903-6.673-14.564-8.698-5.66-2.024-11.921-3.035-18.783-3.035-8.577 0-16.073 1.458-22.49 4.373a48.69 48.69 0 0 0-5.162 2.758c2.298 2.643 3.08 6.446 1.652 9.877l-4.61 11.094h.004l-19.192 46.206c.473 2.401 1.021 4.768 1.734 7.05 2.125 6.83 5.314 12.765 9.572 17.808 4.253 5.042 9.605 9.022 16.056 11.94 6.448 2.914 13.997 4.372 22.643 4.372 6.448 0 12.47-.997 18.06-2.985 5.594-1.988 10.448-4.786 14.566-8.387 4.116-3.605 7.376-7.89 9.777-12.866 2.402-4.973 3.636-10.412 3.708-16.312h-27.893c-.072 2.54-.568 4.821-1.495 6.845"/><path d="M213.34 58.97l-4.524 10.893c-16.104-6.334-33.783-10.262-51.062-7.045-8.91 1.441-17.62 3.963-26.072 7.11-1.702-4.145-3.824-8.153-5.257-12.385 2.66-4.045 8.968-4.809 13.275-7.14 20.525-7.579 44.186-7.629 64.202 1.604 2.741 2.21 10.091 2.428 9.438 6.963zm-43.133 98.6l-35.532-80.835c16.257-6.008 34.124-9.987 51.36-6.029 6.81 1.394 13.462 3.49 19.933 6.014l-33.571 80.828c-.338.959-1.832.97-2.19.022"/><g style="line-height:125%"><path style="-inkscape-font-specification:Roboto" d="M272.216 210.43q0-2.303-1.592-3.561-1.564-1.29-5.502-2.21-3.91-.922-6.228-2.21-2.29-1.29-3.408-3.07-1.09-1.781-1.09-4.237 0-4.083 3.129-6.907 3.156-2.825 8.044-2.825 5.139 0 8.323 2.917 3.212 2.916 3.212 7.46h-5.195q0-2.334-1.816-4.022-1.787-1.688-4.524-1.688-2.821 0-4.413 1.35-1.592 1.351-1.592 3.53 0 2.057 1.48 3.101t5.335 1.996q3.882.951 6.284 2.271 2.402 1.32 3.547 3.193 1.173 1.842 1.173 4.513 0 4.451-3.24 7.153-3.24 2.67-8.407 2.67-3.63 0-6.424-1.412-2.793-1.412-4.385-3.93-1.564-2.547-1.564-5.494h5.167q.14 2.855 2.067 4.543 1.955 1.658 5.14 1.658 2.932 0 4.691-1.29 1.788-1.32 1.788-3.5zm10.529-8.105q0-4.88 1.732-8.78 1.76-3.898 4.86-6.016 3.128-2.119 7.122-2.119 6.172 0 9.97 4.697 3.827 4.697 3.827 12.495V203q0 4.85-1.704 8.718-1.675 3.838-4.831 5.986-3.128 2.15-7.206 2.15-6.145 0-9.971-4.698-3.799-4.696-3.799-12.433v-.399zm5.195.676q0 5.526 2.319 8.872 2.346 3.346 6.256 3.346 3.938 0 6.256-3.377 2.318-3.408 2.318-9.517 0-5.464-2.374-8.84-2.346-3.408-6.256-3.408-3.826 0-6.173 3.346-2.346 3.346-2.346 9.578zm40.917 12.218q2.765 0 4.832-1.842 2.067-1.842 2.29-4.605h4.888q-.14 2.855-1.787 5.434-1.648 2.578-4.413 4.113-2.737 1.535-5.81 1.535-6.172 0-9.83-4.512-3.632-4.544-3.632-12.403v-.951q0-4.85 1.62-8.627 1.62-3.776 4.636-5.863 3.045-2.088 7.178-2.088 5.084 0 8.435 3.346 3.38 3.347 3.603 8.688h-4.888q-.223-3.223-2.234-5.28-1.983-2.087-4.916-2.087-3.938 0-6.116 3.13-2.15 3.101-2.15 8.996v1.074q0 5.74 2.15 8.841 2.15 3.1 6.144 3.1zm23.433 4.021h-5.167v-33.216h5.167v33.216zm-5.586-42.026q0-1.382.754-2.333.783-.952 2.29-.952 1.509 0 2.291.952.782.951.782 2.333 0 1.381-.782 2.302t-2.29.921q-1.508 0-2.29-.92-.755-.922-.755-2.303zm32.483 42.026q-.447-.982-.727-3.5-3.602 4.114-8.602 4.114-4.469 0-7.345-2.763-2.85-2.793-2.85-7.06 0-5.188 3.576-8.043 3.603-2.886 10.11-2.886h5.028v-2.61q0-2.977-1.62-4.727-1.62-1.78-4.776-1.78-2.765 0-4.637 1.534-1.87 1.535-1.87 3.715h-5.196q0-2.487 1.592-4.79 1.62-2.332 4.357-3.683 2.765-1.35 6.061-1.35 5.223 0 8.183 2.885 2.96 2.855 3.073 7.89v15.288q0 4.574 1.061 7.275v.491h-5.418zm-8.575-4.328q2.43 0 4.609-1.382 2.178-1.381 3.156-3.591v-6.815h-4.05q-9.496 0-9.496 6.109 0 2.67 1.62 4.175 1.62 1.504 4.161 1.504zm26.701 4.328h-5.167v-47.153h5.167v47.153z" font-weight="400" font-size="59.969" font-family="Roboto" letter-spacing="0" word-spacing="0"/></g></g></svg>