<svg xmlns="http://www.w3.org/2000/svg" width="42.667" height="42.667" viewBox="0 0 40 40"><g transform="matrix(3.06235 0 0 3.25421 -164.708 -563.428)"><circle cx="60.316" cy="179.284" r="6.196" fill="#515151"/><path d="M60.316 185.48a6.196 6.196 0 0 1 0-12.392z" fill="#222"/></g><g transform="translate(-174.706 -558.747) scale(3.2281)" fill="#1a1a1a"><circle r="6.196" cy="179.284" cx="60.316"/><path d="M60.316 185.48a6.196 6.196 0 0 1 0-12.392z"/></g><g fill="#fff"><path d="M28.268 7.051H11.734c-.444 0-.8.38-.8.85v24.197c0 .47.356.851.799.851h12.266a.773.773 0 0 0 .535-.217l4.266-4.057a.877.877 0 0 0 .267-.634V7.901c0-.47-.358-.85-.8-.85zm-.8 20.514h-3.722v3.634l-.05.047H12.534V8.752h14.933v18.813z"/><path d="M21.468 22.168h-4.066c-.232 0-.419.2-.419.444v4.321c0 .246.187.445.419.445h4.066c.23 0 .418-.2.418-.445v-4.32c0-.245-.187-.445-.418-.445zm-.417 4.322h-3.23v-3.433h3.23zm.783-10.902v-.032a.381.381 0 0 0-.37-.392h-4.059c-.203 0-.37.175-.37.392v4.313c0 .219.167.394.37.394h4.06c.204 0 .37-.175.37-.394v-1.537l-.652.694c-.025.026-.058.038-.087.061v.392h-3.321v-3.531h3.321v.424z"/><path d="M22.595 15.333l-2.06 2.187-.787-.838a.52.52 0 0 0-.769 0 .601.601 0 0 0 0 .816l1.173 1.248a.524.524 0 0 0 .769 0l2.443-2.597a.6.6 0 0 0 0-.817.521.521 0 0 0-.77.001zm-7.931-4.138h10.674v1.184H14.664z"/></g></svg>