<svg xmlns="http://www.w3.org/2000/svg" width="42.667" height="42.667" viewBox="0 0 40 40"><g transform="matrix(3.06235 0 0 3.25421 -164.708 -563.428)"><circle cx="60.316" cy="179.284" r="6.196" fill="#515151"/><path d="M60.316 185.48a6.196 6.196 0 0 1 0-12.392z" fill="#222"/></g><g transform="translate(-174.706 -558.747) scale(3.2281)" fill="#1a1a1a"><circle r="6.196" cy="179.284" cx="60.316"/><path d="M60.316 185.48a6.196 6.196 0 0 1 0-12.392z"/></g><path d="M18.869 31.932c-1.574-.154-2.845-.515-4.144-1.176-3.145-1.601-5.366-4.627-5.934-8.086-.995-6.055 3.083-11.755 9.144-12.782.736-.125.993-.138 2.125-.109.973.023 1.445.068 1.932.172a11.3 11.3 0 0 1 2.617.908c.689.346 1.665.941 1.665 1.017 0 .022-.464.506-1.032 1.072l-1.031 1.03-.208-.12c-2.532-1.464-5.343-1.582-7.87-.33a8.217 8.217 0 0 0-4.45 6.002c-.154.9-.098 2.403.12 3.237.414 1.575 1.085 2.762 2.179 3.857 1.094 1.094 2.282 1.765 3.857 2.178.834.219 2.337.275 3.237.121 4.07-.693 7.034-4.318 6.85-8.378-.059-1.289-.329-2.294-.931-3.464l-.358-.696 1.025-1.027c.564-.564 1.044-1.026 1.068-1.026.075 0 .671.976 1.017 1.665.393.784.712 1.707.915 2.649.129.593.147.86.148 2.19.002 1.69-.072 2.197-.518 3.54-1.365 4.12-5.075 7.088-9.418 7.53-.627.065-1.497.075-2.005.023zm.16-5.3c-2.433-.343-4.358-2.07-4.936-4.425-.176-.717-.19-1.951-.03-2.619.483-2.01 1.926-3.606 3.851-4.262 1.3-.442 2.942-.365 4.216.198l.371.164-1.151 1.153-1.151 1.152-.295-.034c-.367-.042-1.054.114-1.502.34-.666.338-1.287 1.145-1.46 1.9-.158.68-.026 1.515.336 2.132.201.343.776.894 1.113 1.065 1.152.588 2.465.396 3.373-.493.204-.2.448-.515.542-.7.227-.448.382-1.135.34-1.502l-.034-.295 1.15-1.149 1.151-1.149.17.382c.563 1.271.64 2.9.196 4.201a5.957 5.957 0 0 1-3.393 3.574c-.84.335-2.011.485-2.858.366zm.34-5.125c-.403-.219-.492-.812-.185-1.226.103-.138 2.218-2.279 4.7-4.758l4.515-4.507v-2.76l.917-.927c.505-.51.996-.969 1.092-1.02.251-.131.47-.112.67.06.161.139.194.252.383 1.324.114.645.223 1.189.243 1.208.02.02.563.13 1.208.243 1.072.19 1.186.222 1.324.383.172.2.192.419.06.67-.05.096-.51.587-1.02 1.092l-.927.917h-2.76l-4.507 4.514c-2.479 2.483-4.62 4.598-4.758 4.7a.893.893 0 0 1-.955.087z" fill="#fff"/></svg>