<svg xmlns="http://www.w3.org/2000/svg" width="42.667" height="42.667" viewBox="0 0 40 40"><g transform="translate(-174.706 -558.747) scale(3.2281)" fill="#1a1a1a"><circle r="6.196" cy="179.284" cx="60.316"/><path d="M60.316 185.48a6.196 6.196 0 0 1 0-12.392z"/></g><path d="M12.725 32.072c-.87-.133-1.9-.574-2.61-1.119-.41-.315-1.001-.93-1.268-1.32-.29-.426-.657-1.24-.804-1.784-.188-.692-.188-2.02 0-2.778.16-.647.561-1.485.975-2.032.387-.512 5.286-5.376 5.93-5.887.893-.708 1.852-1.21 2.803-1.466.679-.182 1.81-.182 2.455 0a4.561 4.561 0 0 1 1.943 1.1c.424.395.552.67.552 1.187 0 .508-.14.82-.51 1.137-.59.505-1.425.465-2.049-.098-.72-.652-1.692-.62-2.78.09-.496.324-2.223 1.958-4.59 4.343-1.581 1.595-1.75 1.831-1.856 2.613-.243 1.772 1.328 3.322 3.084 3.044.73-.115 1.08-.333 2.026-1.264.997-.98 1.23-1.126 1.795-1.122.603.004 1.067.293 1.352.842.174.335.173.941-.001 1.275-.196.376-1.965 2.08-2.504 2.412a6.414 6.414 0 0 1-1.81.75c-.523.114-1.631.155-2.133.077zm7.887-7.338c-.984-.11-1.893-.543-2.71-1.29-.395-.36-.565-.67-.61-1.11-.043-.407.095-.794.4-1.134.292-.323.616-.464 1.07-.464.459 0 .79.146 1.219.538.753.689 1.691.634 2.739-.16.512-.39 5.75-5.572 5.958-5.897.296-.46.433-.92.432-1.451 0-.846-.267-1.432-.934-2.05-.785-.726-1.803-.993-2.618-.686-.317.12-.491.263-1.404 1.154-.583.57-1.158 1.077-1.306 1.152-.337.173-.954.186-1.267.03a1.852 1.852 0 0 1-.743-.73c-.18-.343-.175-.936.01-1.304.189-.373 2.016-2.152 2.646-2.577 1.52-1.024 3.415-1.148 5.114-.335 1.338.64 2.38 1.66 2.981 2.917.396.827.505 1.335.509 2.361.003.964-.064 1.344-.382 2.17-.382.99-.575 1.215-3.663 4.281-1.865 1.852-3.068 2.999-3.456 3.292-1.3.985-2.7 1.44-3.986 1.296z" fill="#fff"/></svg>