<svg xmlns="http://www.w3.org/2000/svg" width="42.667" height="42.667" viewBox="0 0 40 40"><g transform="translate(-174.706 -558.747) scale(3.2281)" fill="#1a1a1a"><circle r="6.196" cy="179.284" cx="60.316"/><path d="M60.316 185.48a6.196 6.196 0 0 1 0-12.392z"/></g><path d="M27.134 28.823c-1.149-1.153-1.485-1.534-1.485-1.682 0-.222.806-1.043 1.024-1.043.072 0 .613.478 1.202 1.062l1.07 1.061 2.4-2.001c2.48-2.07 2.634-2.17 2.916-1.89.33.33.649.786.649.927 0 .198.079.127-3.163 2.828-2.201 1.834-2.713 2.227-2.9 2.228-.198.001-.431-.202-1.713-1.49zm-9.654-3.785c-1.827-.156-3.813-.61-4.282-.979-.195-.153-.197-.165-.196-1.147.002-1.169.122-1.818.466-2.52.478-.975 1.583-1.826 2.662-2.05.396-.082.436-.076.7.1 1.836 1.214 4.06 1.258 5.983.117l.514-.304.529.119c1.154.26 2.215 1.101 2.717 2.153.336.705.431 1.22.431 2.337 0 .77-.019.904-.152 1.074-.282.357-1.72.763-3.537.996-1.129.145-4.626.207-5.835.104zm-9.975-4.864c-1.286-.133-2.373-.416-2.498-.65-.133-.249-.038-1.534.143-1.943a2.418 2.418 0 0 1 1.1-1.15c.558-.268.696-.26 1.364.071.584.29.617.298 1.398.298.791 0 .807-.003 1.454-.324l.653-.324.453.127a2.549 2.549 0 0 1 1.665 1.43c.119.269.16.526.168 1.037l.01.68-.248.168c-.299.203-1.295.443-2.29.551-.677.074-2.764.091-3.372.03zm21.758.008c-1.515-.18-2.498-.45-2.646-.727-.124-.232-.024-1.423.153-1.823.288-.652.98-1.234 1.646-1.383.294-.065.367-.047.905.228.498.254.679.305 1.206.342.736.05 1.402-.101 1.935-.439.318-.201.37-.212.688-.14.463.103.733.251 1.135.622.537.494.718.93.758 1.822.04.872.018.911-.643 1.126-.794.259-1.551.347-3.217.375-.911.015-1.775.012-1.92-.003zm-10.24-2.331c-1.477-.32-2.739-1.54-3.125-3.022-.146-.561-.142-1.5.007-2.082.348-1.35 1.45-2.493 2.807-2.912.593-.184 1.67-.198 2.31-.034 1.74.453 3.039 2.171 3.045 4.03.002.573-.247 1.5-.54 2.015-.388.685-1.076 1.32-1.805 1.666-.93.441-1.742.543-2.698.336zm1.672-1.471c.69-.143 1.339-.64 1.34-1.028 0-.073-.472-.094-2.113-.094H17.81l.05.17c.029.093.173.295.32.45.476.495 1.532.706 2.516.502zm-12.292-.468c-1.09-.308-1.726-1.093-1.786-2.208-.048-.878.103-1.29.693-1.878.578-.579.996-.737 1.837-.697.683.034 1.129.222 1.598.677.473.459.702 1.025.702 1.731 0 .999-.517 1.807-1.423 2.221-.478.22-1.162.284-1.621.154zm1.105-.84c.346-.103.864-.51.769-.606-.022-.023-.612-.034-1.31-.019l-1.268.02.225.251c.15.168.35.286.6.353.487.13.541.13.984 0zm20.806.874c-.727-.155-1.432-.729-1.753-1.428-.234-.509-.231-1.495.006-1.976a2.62 2.62 0 0 1 1.083-1.16c.336-.184.512-.225 1.064-.252.622-.03.69-.015 1.144.206.588.29 1.029.766 1.25 1.351.219.581.177 1.392-.1 1.934-.231.454-.772.972-1.222 1.171-.37.164-1.077.237-1.472.153zm1.313-1.014c.161-.09.343-.24.404-.333l.111-.17h-1.289c-.709 0-1.289.03-1.289.068 0 .167.302.408.68.541.49.173.943.138 1.383-.106z" fill="#fff"/></svg>