<svg xmlns="http://www.w3.org/2000/svg" width="42.667" height="42.667" viewBox="0 0 40 40"><g transform="matrix(3.06235 0 0 3.25421 -164.708 -563.428)"><circle cx="60.316" cy="179.284" r="6.196" fill="#515151"/><path d="M60.316 185.48a6.196 6.196 0 0 1 0-12.392z" fill="#222"/></g><g transform="translate(-174.706 -558.747) scale(3.2281)" fill="#1a1a1a"><circle r="6.196" cy="179.284" cx="60.316"/><path d="M60.316 185.48a6.196 6.196 0 0 1 0-12.392z"/></g><path d="M31.77 29.178H15.566l2.727-.801a.582.582 0 0 0 .334-.178l11.421-12.137a.657.657 0 0 0 .175-.45.657.657 0 0 0-.175-.45l-2.079-2.209L15.701 25.99l1.347 1.432-2.196.645-2.055-2.184.608-2.333 1.449 1.54 12.268-13.037-2.181-2.318a.574.574 0 0 0-.847 0L12.672 21.872a.65.65 0 0 0-.166.354l-1.81 6.952H8.23c-.331 0-.6.285-.6.636 0 .352.269.637.6.637h23.54c.331 0 .6-.285.6-.637 0-.351-.269-.636-.6-.636z" fill="#fff"/></svg>