<svg xmlns="http://www.w3.org/2000/svg" width="42.667" height="42.667" viewBox="0 0 40 40"><g transform="translate(-174.706 -558.747) scale(3.2281)" fill="#1a1a1a"><circle r="6.196" cy="179.284" cx="60.316"/><path d="M60.316 185.48a6.196 6.196 0 0 1 0-12.392z"/></g><path d="M8.513 21.663V10.978h2.532v.822c0 1.342.166 1.902.751 2.543.666.729 1.729 1.013 2.694.72.46-.14.962-.472 1.245-.823.51-.631.622-1.047.622-2.318v-.944h7.287l.001.942c.001.518.03 1.066.065 1.217.38 1.644 2.22 2.516 3.733 1.769a2.66 2.66 0 0 0 1.445-1.917c.037-.202.067-.736.067-1.189v-.822h2.533v21.369H8.512zm7.133 6.268v-2.655l-2.67-.015-2.672-.015v5.375l2.671-.015 2.671-.015zm6.948 0v-2.686h-5.188v5.373h5.188zm7.103 0v-2.687l-2.671.015-2.671.015-.017 2.594c-.009 1.426-.003 2.628.014 2.67.023.061.618.078 2.687.078h2.658v-2.687zm-14.05-7.071v-2.625l-2.672-.015-2.671-.015v5.314l2.671-.015 2.671-.015zm6.947 0v-2.656h-5.188v5.312h5.188zm7.103-.001v-2.656l-2.671.015-2.671.015-.017 2.563c-.009 1.41-.003 2.598.014 2.64.023.06.617.077 2.687.077h2.658v-2.656zm-16.532-6.657c-.578-.206-.975-.612-1.131-1.155-.049-.17-.065-.866-.051-2.224.017-1.75.032-1.999.129-2.176.45-.825 1.387-1.198 2.219-.884.406.154.912.655 1.048 1.037.062.175.082.722.082 2.209 0 1.937-.003 1.982-.142 2.264-.164.333-.603.762-.912.891-.36.15-.882.167-1.241.038zm12.637.03c-.33-.092-.586-.263-.853-.568-.408-.465-.409-.47-.409-2.686 0-1.986.001-2.01.146-2.301.207-.418.684-.826 1.106-.949.873-.254 1.857.24 2.142 1.076.078.23.096.623.096 2.163 0 1.219-.025 1.963-.07 2.114-.254.847-1.286 1.398-2.158 1.152z" fill="#fff"/></svg>