<svg xmlns="http://www.w3.org/2000/svg" width="42.667" height="42.667" viewBox="0 0 40 40"><g transform="translate(-174.706 -558.747) scale(3.2281)" fill="#1a1a1a"><circle r="6.196" cy="179.284" cx="60.316"/><path d="M60.316 185.48a6.196 6.196 0 0 1 0-12.392z"/></g><g fill="#fff" font-weight="900" font-family="Raleway" letter-spacing="0" word-spacing="0" text-anchor="middle"><path d="M9.626 14.397h2.797l3.866 11.158h-3.112l-.676-2.184h-2.97l-.66 2.184H5.744z" style="line-height:1.25;-inkscape-font-specification:'Raleway Heavy';text-align:center"/><path d="M15.985 25.555V14.397h4.29q1.383 0 2.436.44t1.76 1.195q.707.754 1.069 1.776.361 1.005.361 2.153 0 1.273-.408 2.31-.393 1.021-1.132 1.76-.738.723-1.776 1.131-1.037.393-2.31.393z" style="line-height:1.25;-inkscape-font-specification:'Raleway Heavy';text-align:center"/><path d="M32.669 18.043q-.472-.283-.974-.503-.425-.188-.96-.345-.518-.173-1.02-.173-.41 0-.66.126-.236.125-.236.424 0 .22.141.361.142.142.409.268.267.11.644.22.393.11.88.267.77.235 1.383.518.629.283 1.069.676.44.377.675.927.236.55.236 1.336 0 1.006-.377 1.697-.361.676-.974 1.085-.598.408-1.368.597-.754.173-1.524.173-.613 0-1.257-.094-.645-.095-1.289-.268-.629-.172-1.226-.408-.581-.236-1.084-.535l1.32-2.687q.55.346 1.147.613.503.236 1.132.424.644.189 1.304.189.503 0 .692-.126.204-.141.204-.361 0-.236-.204-.393-.189-.173-.535-.299-.345-.125-.801-.251-.44-.126-.943-.299-.739-.251-1.273-.534-.534-.299-.88-.66-.346-.377-.519-.849-.157-.471-.157-1.084 0-.927.33-1.634.346-.708.927-1.18.582-.47 1.32-.706.755-.252 1.588-.252.613 0 1.194.126.582.11 1.116.299.55.172 1.021.392.472.205.849.393z" style="line-height:1.25;-inkscape-font-specification:'Raleway Heavy';text-align:center"/></g></svg>